<?xml version="1.0" encoding="utf-8"?>
<!-- Generator: Adobe Illustrator 26.0.3, SVG Export Plug-In . SVG Version: 6.00 Build 0)  -->
<svg version="1.1" id="Layer_1" xmlns="http://www.w3.org/2000/svg" xmlns:xlink="http://www.w3.org/1999/xlink" x="0px" y="0px"
	 viewBox="0 0 100 140.5" style="enable-background:new 0 0 100 140.5;" xml:space="preserve">
<style type="text/css">
	.st0{fill:none;stroke:#010101;stroke-width:0.25;stroke-miterlimit:10;}
</style>
<g id="Layer_2_00000029039187673555896530000011771780073523763081_">
	<g id="oled_cover">
		<path class="st0" d="M72.7,118.5c-1.5,0-2.8-1.2-2.8-2.8s1.2-2.8,2.8-2.8c1,0,1.9,0.6,2.4,1.4V26.1c-0.5,0.8-1.4,1.4-2.4,1.4
			c-1.5,0-2.8-1.2-2.8-2.8s1.2-2.8,2.8-2.8c1,0,1.9,0.6,2.4,1.4v-5c0-0.4-0.3-0.7-0.7-0.7H25.6c-0.4,0-0.7,0.3-0.7,0.7v5
			c0.5-0.8,1.4-1.4,2.4-1.4c1.5,0,2.8,1.2,2.8,2.8s-1.2,2.8-2.8,2.8c-1,0-1.9-0.6-2.4-1.4v88.3c0.5-0.9,1.4-1.4,2.4-1.4
			c1.5,0,2.8,1.2,2.8,2.8s-1.2,2.8-2.8,2.8c-1,0-1.9-0.6-2.4-1.4v5c0,0.4,0.3,0.7,0.7,0.7h48.9c0.4,0,0.7-0.3,0.7-0.7v-5
			C74.7,117.9,73.8,118.5,72.7,118.5z"/>
	</g>
</g>
</svg>
