<?xml version="1.0" encoding="utf-8"?>
<!-- Generator: Adobe Illustrator 26.0.3, SVG Export Plug-In . SVG Version: 6.00 Build 0)  -->
<svg version="1.1" id="Layer_1" xmlns="http://www.w3.org/2000/svg" xmlns:xlink="http://www.w3.org/1999/xlink" x="0px" y="0px"
	 viewBox="0 0 607.18 229.23" style="enable-background:new 0 0 607.18 229.23;" xml:space="preserve">
<style type="text/css">
	.st0{fill:none;stroke:#000000;stroke-width:0.25;stroke-linecap:round;stroke-linejoin:round;stroke-miterlimit:10;}
	.st1{fill:none;stroke:#000000;stroke-width:0.25;stroke-miterlimit:10;}
</style>
<path class="st0" d="M447.65,106.94c-0.78,0-1.42-0.63-1.42-1.42V68.67c0-0.78,0.63-1.42,1.42-1.42h36.85
	c0.78,0,1.42,0.63,1.42,1.42v36.85c0,0.78-0.63,1.42-1.42,1.42C484.5,106.94,447.65,106.94,447.65,106.94z"/>
<path class="st0" d="M269.92,105.52c0,0.78-0.63,1.42-1.42,1.42h-36.85c-0.78,0-1.42-0.63-1.42-1.42V68.67
	c0-0.78,0.63-1.42,1.42-1.42h36.85c0.78,0,1.42,0.63,1.42,1.42V105.52z"/>
<path class="st0" d="M539.92,105.52c0,0.78-0.63,1.42-1.42,1.42h-36.85c-0.78,0-1.42-0.63-1.42-1.42V68.67
	c0-0.78,0.63-1.42,1.42-1.42h36.85c0.78,0,1.42,0.63,1.42,1.42V105.52z"/>
<path class="st0" d="M161.92,105.52c0,0.78-0.63,1.42-1.42,1.42h-36.85c-0.78,0-1.42-0.63-1.42-1.42V68.67
	c0-0.78,0.63-1.42,1.42-1.42h36.85c0.78,0,1.42,0.63,1.42,1.42V105.52z"/>
<path class="st0" d="M431.92,105.52c0,0.78-0.63,1.42-1.42,1.42h-36.85c-0.78,0-1.42-0.63-1.42-1.42V68.67
	c0-0.78,0.63-1.42,1.42-1.42h36.85c0.78,0,1.42,0.63,1.42,1.42V105.52z"/>
<path class="st0" d="M377.92,105.52c0,0.78-0.63,1.42-1.42,1.42h-36.85c-0.78,0-1.42-0.63-1.42-1.42V68.67
	c0-0.78,0.63-1.42,1.42-1.42h36.85c0.78,0,1.42,0.63,1.42,1.42V105.52z"/>
<path class="st0" d="M593.92,105.52c0,0.78-0.63,1.42-1.42,1.42h-36.85c-0.78,0-1.42-0.63-1.42-1.42V68.67
	c0-0.78,0.63-1.42,1.42-1.42h36.85c0.78,0,1.42,0.63,1.42,1.42V105.52z"/>
<path class="st0" d="M107.92,105.52c0,0.78-0.63,1.42-1.42,1.42H69.65c-0.78,0-1.42-0.63-1.42-1.42V68.67
	c0-0.78,0.63-1.42,1.42-1.42h36.85c0.78,0,1.42,0.63,1.42,1.42V105.52z"/>
<path class="st0" d="M15.65,106.94c-0.78,0-1.42-0.63-1.42-1.42V68.67c0-0.78,0.63-1.42,1.42-1.42H52.5c0.78,0,1.42,0.63,1.42,1.42
	v36.85c0,0.78-0.63,1.42-1.42,1.42C52.5,106.94,15.65,106.94,15.65,106.94z"/>
<path class="st0" d="M215.92,105.52c0,0.78-0.63,1.42-1.42,1.42h-36.85c-0.78,0-1.42-0.63-1.42-1.42V68.67
	c0-0.78,0.63-1.42,1.42-1.42h36.85c0.78,0,1.42,0.63,1.42,1.42V105.52z"/>
<path class="st0" d="M447.65,52.94c-0.78,0-1.42-0.63-1.42-1.42V14.67c0-0.78,0.63-1.42,1.42-1.42h36.85c0.78,0,1.42,0.63,1.42,1.42
	v36.85c0,0.78-0.63,1.42-1.42,1.42C484.5,52.94,447.65,52.94,447.65,52.94z"/>
<path class="st0" d="M269.92,51.52c0,0.78-0.63,1.42-1.42,1.42h-36.85c-0.78,0-1.42-0.63-1.42-1.42V14.67
	c0-0.78,0.63-1.42,1.42-1.42h36.85c0.78,0,1.42,0.63,1.42,1.42V51.52z"/>
<path class="st0" d="M539.92,51.52c0,0.78-0.63,1.42-1.42,1.42h-36.85c-0.78,0-1.42-0.63-1.42-1.42V14.67
	c0-0.78,0.63-1.42,1.42-1.42h36.85c0.78,0,1.42,0.63,1.42,1.42V51.52z"/>
<path class="st0" d="M161.92,51.52c0,0.78-0.63,1.42-1.42,1.42h-36.85c-0.78,0-1.42-0.63-1.42-1.42V14.67
	c0-0.78,0.63-1.42,1.42-1.42h36.85c0.78,0,1.42,0.63,1.42,1.42V51.52z"/>
<path class="st0" d="M431.92,51.52c0,0.78-0.63,1.42-1.42,1.42h-36.85c-0.78,0-1.42-0.63-1.42-1.42V14.67
	c0-0.78,0.63-1.42,1.42-1.42h36.85c0.78,0,1.42,0.63,1.42,1.42V51.52z"/>
<path class="st0" d="M377.92,51.52c0,0.78-0.63,1.42-1.42,1.42h-36.85c-0.78,0-1.42-0.63-1.42-1.42V14.67
	c0-0.78,0.63-1.42,1.42-1.42h36.85c0.78,0,1.42,0.63,1.42,1.42V51.52z"/>
<path class="st0" d="M593.92,51.52c0,0.78-0.63,1.42-1.42,1.42h-36.85c-0.78,0-1.42-0.63-1.42-1.42V14.67
	c0-0.78,0.63-1.42,1.42-1.42h36.85c0.78,0,1.42,0.63,1.42,1.42V51.52z"/>
<path class="st0" d="M107.92,51.52c0,0.78-0.63,1.42-1.42,1.42H69.65c-0.78,0-1.42-0.63-1.42-1.42V14.67c0-0.78,0.63-1.42,1.42-1.42
	h36.85c0.78,0,1.42,0.63,1.42,1.42V51.52z"/>
<path class="st0" d="M15.65,52.94c-0.78,0-1.42-0.63-1.42-1.42V14.67c0-0.78,0.63-1.42,1.42-1.42H52.5c0.78,0,1.42,0.63,1.42,1.42
	v36.85c0,0.78-0.63,1.42-1.42,1.42C52.5,52.94,15.65,52.94,15.65,52.94z"/>
<path class="st0" d="M215.92,51.52c0,0.78-0.63,1.42-1.42,1.42h-36.85c-0.78,0-1.42-0.63-1.42-1.42V14.67
	c0-0.78,0.63-1.42,1.42-1.42h36.85c0.78,0,1.42,0.63,1.42,1.42V51.52z"/>
<path class="st0" d="M484.5,121.25h-36.85c-0.78,0-1.42,0.63-1.42,1.42v36.85c0,0.78,0.63,1.42,1.42,1.42h36.85
	c0.78,0,1.42-0.63,1.42-1.42v-36.85C485.92,121.89,485.28,121.25,484.5,121.25z"/>
<path class="st0" d="M268.5,121.25h-36.85c-0.78,0-1.42,0.63-1.42,1.42v36.85c0,0.78,0.63,1.42,1.42,1.42h36.85
	c0.78,0,1.42-0.63,1.42-1.42v-36.85C269.92,121.89,269.28,121.25,268.5,121.25z"/>
<path class="st0" d="M538.5,121.25h-36.85c-0.78,0-1.42,0.63-1.42,1.42v36.85c0,0.78,0.63,1.42,1.42,1.42h36.85
	c0.78,0,1.42-0.63,1.42-1.42v-36.85C539.92,121.89,539.28,121.25,538.5,121.25z"/>
<path class="st0" d="M160.5,121.25h-36.85c-0.78,0-1.42,0.63-1.42,1.42v36.85c0,0.78,0.63,1.42,1.42,1.42h36.85
	c0.78,0,1.42-0.63,1.42-1.42v-36.85C161.92,121.89,161.28,121.25,160.5,121.25z"/>
<path class="st0" d="M430.5,121.25h-36.85c-0.78,0-1.42,0.63-1.42,1.42v36.85c0,0.78,0.63,1.42,1.42,1.42h36.85
	c0.78,0,1.42-0.63,1.42-1.42v-36.85C431.92,121.89,431.28,121.25,430.5,121.25z"/>
<path class="st0" d="M376.5,121.25h-36.85c-0.78,0-1.42,0.63-1.42,1.42v36.85c0,0.78,0.63,1.42,1.42,1.42h36.85
	c0.78,0,1.42-0.63,1.42-1.42v-36.85C377.92,121.89,377.28,121.25,376.5,121.25z"/>
<path class="st0" d="M106.5,121.25H69.65c-0.78,0-1.42,0.63-1.42,1.42v36.85c0,0.78,0.63,1.42,1.42,1.42h36.85
	c0.78,0,1.42-0.63,1.42-1.42v-36.85C107.92,121.89,107.28,121.25,106.5,121.25z"/>
<path class="st0" d="M52.5,121.25H15.65c-0.78,0-1.42,0.63-1.42,1.42v35.83c-0.24-0.05-0.48-0.09-0.73-0.09
	c-1.8,0-3.26,1.46-3.26,3.26c0,1.8,1.46,3.26,3.26,3.26s3.26-1.46,3.26-3.26c0-0.25-0.04-0.5-0.09-0.73H52.5
	c0.78,0,1.42-0.63,1.42-1.42v-36.85C53.92,121.89,53.28,121.25,52.5,121.25z"/>
<path class="st0" d="M214.5,121.25h-36.85c-0.78,0-1.42,0.63-1.42,1.42v36.85c0,0.78,0.63,1.42,1.42,1.42h36.85
	c0.78,0,1.42-0.63,1.42-1.42v-36.85C215.92,121.89,215.28,121.25,214.5,121.25z"/>
<path class="st0" d="M594.65,158.41c-0.25,0-0.5,0.04-0.74,0.09c0-1.92,0-35.83,0-35.83c0-0.78-0.63-1.42-1.42-1.42h-36.85
	c-0.78,0-1.42,0.63-1.42,1.42v36.85c0,0.78,0.63,1.42,1.42,1.42h35.83c-0.05,0.24-0.09,0.48-0.09,0.73c0,1.8,1.46,3.26,3.26,3.26
	s3.26-1.46,3.26-3.26C597.91,159.87,596.45,158.41,594.65,158.41z"/>
<path class="st0" d="M447.58,169.58c0.78,0,1.42,0.63,1.42,1.42v2.83c0,0.78,0.63,1.42,1.42,1.42h61.09c0.78,0,1.42,0.63,1.42,1.42
	v36.85c0,0.78-0.63,1.42-1.42,1.42H96.65c-0.78,0-1.42-0.63-1.42-1.42v-36.85c0-0.78,0.63-1.42,1.42-1.42h61.09
	c0.78,0,1.42-0.63,1.42-1.42V171c0-0.78,0.63-1.42,1.42-1.42h17.01c0.78,0,1.42,0.63,1.42,1.42v2.83c0,0.78,0.63,1.42,1.42,1.42
	h4.23c0.78,0,1.42-0.63,1.42-1.42V171c0-0.78,0.63-1.42,1.42-1.42h37.26c0.78,0,1.42,0.63,1.42,1.42v2.83
	c0,0.78,0.63,1.42,1.42,1.42h11.16c0.78,0,1.42-0.63,1.42-1.42V171c0-0.78,0.63-1.42,1.42-1.42h50.85c0.78,0,1.42,0.63,1.42,1.42
	v2.83c0,0.78,0.63,1.42,1.42,1.42h17.64c0.78,0,1.42-0.63,1.42-1.42V171c0-0.78,0.63-1.42,1.42-1.42h23.85
	c0.78,0,1.42,0.63,1.42,1.42v2.83c0,0.78,0.63,1.42,1.42,1.42h4.32c0.78,0,1.42-0.63,1.42-1.42V171c0-0.78,0.63-1.42,1.42-1.42
	h17.01c0.78,0,1.42,0.63,1.42,1.42v2.83c0,0.78,0.63,1.42,1.42,1.42h11.16c0.78,0,1.42-0.63,1.42-1.42V171
	c0-0.78,0.63-1.42,1.42-1.42h23.76c0.78,0,1.42,0.63,1.42,1.42v2.83c0,0.78,0.63,1.42,1.42,1.42h17.73c0.78,0,1.42-0.63,1.42-1.42
	V171c0-0.78,0.63-1.42,1.42-1.42H447.58z"/>
<circle class="st0" cx="61.07" cy="13.25" r="3.26"/>
<circle class="st0" cx="547.07" cy="13.25" r="3.26"/>
<path class="st0" d="M602.7,160.94c0,4.85-3.93,8.79-8.79,8.79H525.1c-1.88,0-3.4,1.52-3.4,3.4v41.81c0,4.85-3.93,8.79-8.79,8.79
	H95.23c-4.85,0-8.79-3.93-8.79-8.79v-41.81c0-1.88-1.52-3.4-3.4-3.4H14.23c-4.85,0-8.79-3.93-8.79-8.79V13.25
	c0-4.85,3.93-8.79,8.79-8.79h579.69c4.85,0,8.79,3.93,8.79,8.79L602.7,160.94L602.7,160.94z"/>
<path class="st1" d="M170.49,65.76h-2.83c-0.78,0-1.42-0.63-1.42-1.42v-8.5c0-0.78,0.63-1.42,1.42-1.42h2.83
	c0.78,0,1.42,0.63,1.42,1.42v8.5C171.91,65.13,171.27,65.76,170.49,65.76z"/>
<path class="st0" d="M323.91,21.75v-7.09c0-0.78-0.63-1.42-1.42-1.42h-36.85c-0.78,0-1.42,0.63-1.42,1.42v7.11"/>
<path class="st0" d="M325.33,43.01h2.83c0.78,0,1.42-0.63,1.42-1.42V24.58c0-0.78-0.63-1.42-1.42-1.42h-2.83"/>
<line class="st0" x1="323.91" y1="129.75" x2="323.91" y2="44.43"/>
<path class="st0" d="M325.3,151.01h2.86c0.78,0,1.42-0.63,1.42-1.42v-17.01c0-0.78-0.63-1.42-1.42-1.42h-2.83"/>
<path class="st0" d="M284.23,152.43v7.09c0,0.78,0.63,1.42,1.42,1.42h36.85c0.78,0,1.42-0.63,1.42-1.42v-7.09"/>
<path class="st0" d="M282.81,131.17h-2.83c-0.78,0-1.42,0.63-1.42,1.42v17.01c0,0.78,0.63,1.42,1.42,1.42h2.83"/>
<line class="st0" x1="284.23" y1="44.43" x2="284.23" y2="129.75"/>
<path class="st0" d="M282.81,23.17h-2.83c-0.78,0-1.42,0.63-1.42,1.42V41.6c0,0.78,0.63,1.42,1.42,1.42h2.83"/>
<path class="st0" d="M284.23,21.75c0,0.78-0.63,1.42-1.42,1.42"/>
<path class="st0" d="M325.33,23.17c-0.78,0-1.42-0.63-1.42-1.42"/>
<path class="st0" d="M282.81,43.01c0.78,0,1.42,0.63,1.42,1.42"/>
<path class="st0" d="M284.23,129.75c0,0.78-0.63,1.42-1.42,1.42"/>
<path class="st0" d="M282.81,151.01c0.78,0,1.42,0.63,1.42,1.42"/>
<path class="st0" d="M323.91,44.43c0-0.78,0.63-1.42,1.42-1.42"/>
<path class="st0" d="M325.33,131.17c-0.78,0-1.42-0.63-1.42-1.42"/>
<path class="st0" d="M323.91,152.43c0-0.77,0.62-1.4,1.39-1.42"/>
</svg>
