<?xml version="1.0" encoding="utf-8"?>
<!-- Generator: Adobe Illustrator 26.0.3, SVG Export Plug-In . SVG Version: 6.00 Build 0)  -->
<svg version="1.1" id="my" xmlns="http://www.w3.org/2000/svg" xmlns:xlink="http://www.w3.org/1999/xlink" x="0px" y="0px"
	 viewBox="0 0 607.2 229.2" style="enable-background:new 0 0 607.2 229.2;" xml:space="preserve">
<style type="text/css">
	.st0{fill:none;stroke:#000000;stroke-width:0.25;stroke-linecap:round;stroke-linejoin:round;stroke-miterlimit:10;}
	.st1{fill:none;stroke:#000000;stroke-width:0.25;stroke-miterlimit:10;}
</style>
<path class="st0" d="M447.6,106.9c-0.8,0-1.4-0.6-1.4-1.4V68.7c0-0.8,0.6-1.4,1.4-1.4h36.9c0.8,0,1.4,0.6,1.4,1.4v36.9
	c0,0.8-0.6,1.4-1.4,1.4H447.6z"/>
<path class="st0" d="M269.9,105.5c0,0.8-0.6,1.4-1.4,1.4h-36.9c-0.8,0-1.4-0.6-1.4-1.4V68.7c0-0.8,0.6-1.4,1.4-1.4h36.9
	c0.8,0,1.4,0.6,1.4,1.4V105.5z"/>
<path class="st0" d="M539.9,105.5c0,0.8-0.6,1.4-1.4,1.4h-36.9c-0.8,0-1.4-0.6-1.4-1.4V68.7c0-0.8,0.6-1.4,1.4-1.4h36.9
	c0.8,0,1.4,0.6,1.4,1.4V105.5z"/>
<path class="st0" d="M161.9,105.5c0,0.8-0.6,1.4-1.4,1.4h-36.9c-0.8,0-1.4-0.6-1.4-1.4V68.7c0-0.8,0.6-1.4,1.4-1.4h36.9
	c0.8,0,1.4,0.6,1.4,1.4V105.5z"/>
<path class="st0" d="M431.9,105.5c0,0.8-0.6,1.4-1.4,1.4h-36.9c-0.8,0-1.4-0.6-1.4-1.4V68.7c0-0.8,0.6-1.4,1.4-1.4h36.9
	c0.8,0,1.4,0.6,1.4,1.4V105.5z"/>
<path class="st0" d="M377.9,105.5c0,0.8-0.6,1.4-1.4,1.4h-36.9c-0.8,0-1.4-0.6-1.4-1.4V68.7c0-0.8,0.6-1.4,1.4-1.4h36.9
	c0.8,0,1.4,0.6,1.4,1.4V105.5z"/>
<path class="st0" d="M593.9,105.5c0,0.8-0.6,1.4-1.4,1.4h-36.9c-0.8,0-1.4-0.6-1.4-1.4V68.7c0-0.8,0.6-1.4,1.4-1.4h36.9
	c0.8,0,1.4,0.6,1.4,1.4V105.5z"/>
<path class="st0" d="M107.9,105.5c0,0.8-0.6,1.4-1.4,1.4H69.6c-0.8,0-1.4-0.6-1.4-1.4V68.7c0-0.8,0.6-1.4,1.4-1.4h36.9
	c0.8,0,1.4,0.6,1.4,1.4V105.5z"/>
<path class="st0" d="M15.6,106.9c-0.8,0-1.4-0.6-1.4-1.4V68.7c0-0.8,0.6-1.4,1.4-1.4h36.9c0.8,0,1.4,0.6,1.4,1.4v36.9
	c0,0.8-0.6,1.4-1.4,1.4H15.6z"/>
<path class="st0" d="M215.9,105.5c0,0.8-0.6,1.4-1.4,1.4h-36.9c-0.8,0-1.4-0.6-1.4-1.4V68.7c0-0.8,0.6-1.4,1.4-1.4h36.9
	c0.8,0,1.4,0.6,1.4,1.4V105.5z"/>
<path class="st0" d="M447.6,52.9c-0.8,0-1.4-0.6-1.4-1.4V14.7c0-0.8,0.6-1.4,1.4-1.4h36.9c0.8,0,1.4,0.6,1.4,1.4v36.9
	c0,0.8-0.6,1.4-1.4,1.4H447.6z"/>
<path class="st0" d="M269.9,51.5c0,0.8-0.6,1.4-1.4,1.4h-36.9c-0.8,0-1.4-0.6-1.4-1.4V14.7c0-0.8,0.6-1.4,1.4-1.4h36.9
	c0.8,0,1.4,0.6,1.4,1.4V51.5z"/>
<path class="st0" d="M539.9,51.5c0,0.8-0.6,1.4-1.4,1.4h-36.9c-0.8,0-1.4-0.6-1.4-1.4V14.7c0-0.8,0.6-1.4,1.4-1.4h36.9
	c0.8,0,1.4,0.6,1.4,1.4V51.5z"/>
<path class="st0" d="M161.9,51.5c0,0.8-0.6,1.4-1.4,1.4h-36.9c-0.8,0-1.4-0.6-1.4-1.4V14.7c0-0.8,0.6-1.4,1.4-1.4h36.9
	c0.8,0,1.4,0.6,1.4,1.4V51.5z"/>
<path class="st0" d="M431.9,51.5c0,0.8-0.6,1.4-1.4,1.4h-36.9c-0.8,0-1.4-0.6-1.4-1.4V14.7c0-0.8,0.6-1.4,1.4-1.4h36.9
	c0.8,0,1.4,0.6,1.4,1.4V51.5z"/>
<path class="st0" d="M377.9,51.5c0,0.8-0.6,1.4-1.4,1.4h-36.9c-0.8,0-1.4-0.6-1.4-1.4V14.7c0-0.8,0.6-1.4,1.4-1.4h36.9
	c0.8,0,1.4,0.6,1.4,1.4V51.5z"/>
<path class="st0" d="M593.9,51.5c0,0.8-0.6,1.4-1.4,1.4h-36.9c-0.8,0-1.4-0.6-1.4-1.4V14.7c0-0.8,0.6-1.4,1.4-1.4h36.9
	c0.8,0,1.4,0.6,1.4,1.4V51.5z"/>
<path class="st0" d="M107.9,51.5c0,0.8-0.6,1.4-1.4,1.4H69.6c-0.8,0-1.4-0.6-1.4-1.4V14.7c0-0.8,0.6-1.4,1.4-1.4h36.9
	c0.8,0,1.4,0.6,1.4,1.4V51.5z"/>
<path class="st0" d="M15.6,52.9c-0.8,0-1.4-0.6-1.4-1.4V14.7c0-0.8,0.6-1.4,1.4-1.4h36.9c0.8,0,1.4,0.6,1.4,1.4v36.9
	c0,0.8-0.6,1.4-1.4,1.4H15.6z"/>
<path class="st0" d="M215.9,51.5c0,0.8-0.6,1.4-1.4,1.4h-36.9c-0.8,0-1.4-0.6-1.4-1.4V14.7c0-0.8,0.6-1.4,1.4-1.4h36.9
	c0.8,0,1.4,0.6,1.4,1.4V51.5z"/>
<path class="st0" d="M484.5,121.3h-36.9c-0.8,0-1.4,0.6-1.4,1.4v36.9c0,0.8,0.6,1.4,1.4,1.4h36.9c0.8,0,1.4-0.6,1.4-1.4v-36.9
	C485.9,121.9,485.3,121.3,484.5,121.3z"/>
<path class="st0" d="M268.5,121.3h-36.9c-0.8,0-1.4,0.6-1.4,1.4v36.9c0,0.8,0.6,1.4,1.4,1.4h36.9c0.8,0,1.4-0.6,1.4-1.4v-36.9
	C269.9,121.9,269.3,121.3,268.5,121.3z"/>
<path class="st0" d="M538.5,121.3h-36.9c-0.8,0-1.4,0.6-1.4,1.4v36.9c0,0.8,0.6,1.4,1.4,1.4h36.9c0.8,0,1.4-0.6,1.4-1.4v-36.9
	C539.9,121.9,539.3,121.3,538.5,121.3z"/>
<path class="st0" d="M160.5,121.3h-36.9c-0.8,0-1.4,0.6-1.4,1.4v36.9c0,0.8,0.6,1.4,1.4,1.4h36.9c0.8,0,1.4-0.6,1.4-1.4v-36.9
	C161.9,121.9,161.3,121.3,160.5,121.3z"/>
<path class="st0" d="M430.5,121.3h-36.9c-0.8,0-1.4,0.6-1.4,1.4v36.9c0,0.8,0.6,1.4,1.4,1.4h36.9c0.8,0,1.4-0.6,1.4-1.4v-36.9
	C431.9,121.9,431.3,121.3,430.5,121.3z"/>
<path class="st0" d="M376.5,121.3h-36.9c-0.8,0-1.4,0.6-1.4,1.4v36.9c0,0.8,0.6,1.4,1.4,1.4h36.9c0.8,0,1.4-0.6,1.4-1.4v-36.9
	C377.9,121.9,377.3,121.3,376.5,121.3z"/>
<path class="st0" d="M106.5,121.3H69.6c-0.8,0-1.4,0.6-1.4,1.4v36.9c0,0.8,0.6,1.4,1.4,1.4h36.9c0.8,0,1.4-0.6,1.4-1.4v-36.9
	C107.9,121.9,107.3,121.3,106.5,121.3z"/>
<path class="st0" d="M52.5,121.3H15.6c-0.8,0-1.4,0.6-1.4,1.4v35.8c-0.2-0.1-0.5-0.1-0.7-0.1c-1.8,0-3.3,1.5-3.3,3.3
	c0,1.8,1.5,3.3,3.3,3.3s3.3-1.5,3.3-3.3c0-0.3,0-0.5-0.1-0.7h35.8c0.8,0,1.4-0.6,1.4-1.4v-36.9C53.9,121.9,53.3,121.3,52.5,121.3z"
	/>
<path class="st0" d="M214.5,121.3h-36.9c-0.8,0-1.4,0.6-1.4,1.4v36.9c0,0.8,0.6,1.4,1.4,1.4h36.9c0.8,0,1.4-0.6,1.4-1.4v-36.9
	C215.9,121.9,215.3,121.3,214.5,121.3z"/>
<path class="st0" d="M594.7,158.4c-0.3,0-0.5,0-0.7,0.1c0-1.9,0-35.8,0-35.8c0-0.8-0.6-1.4-1.4-1.4h-36.9c-0.8,0-1.4,0.6-1.4,1.4
	v36.9c0,0.8,0.6,1.4,1.4,1.4h35.8c-0.1,0.2-0.1,0.5-0.1,0.7c0,1.8,1.5,3.3,3.3,3.3c1.8,0,3.3-1.5,3.3-3.3
	C597.9,159.9,596.5,158.4,594.7,158.4z"/>
<circle class="st0" cx="61.1" cy="13.3" r="3.3"/>
<circle class="st0" cx="547.1" cy="13.3" r="3.3"/>
<path class="st0" d="M602.7,160.9c0,4.9-3.9,8.8-8.8,8.8h-68.8c-1.9,0-3.4,1.5-3.4,3.4v41.8c0,4.9-3.9,8.8-8.8,8.8H95.2
	c-4.9,0-8.8-3.9-8.8-8.8v-41.8c0-1.9-1.5-3.4-3.4-3.4H14.2c-4.9,0-8.8-3.9-8.8-8.8V13.3c0-4.9,3.9-8.8,8.8-8.8h579.7
	c4.9,0,8.8,3.9,8.8,8.8V160.9z"/>
<path class="st1" d="M170.5,65.8h-2.8c-0.8,0-1.4-0.6-1.4-1.4v-8.5c0-0.8,0.6-1.4,1.4-1.4h2.8c0.8,0,1.4,0.6,1.4,1.4v8.5
	C171.9,65.1,171.3,65.8,170.5,65.8z"/>
<path class="st0" d="M289.2,73.2H319c0.8,0,1.4,0.6,1.4,1.4v76.3c0,0.8-0.6,1.4-1.4,1.4h-29.8c-0.8,0-1.4-0.6-1.4-1.4V74.6
	C287.8,73.8,288.4,73.2,289.2,73.2z"/>
<path class="st0" d="M323.9,51.5c0,0.8-0.6,1.4-1.4,1.4h-36.9c-0.8,0-1.4-0.6-1.4-1.4V14.7c0-0.8,0.6-1.4,1.4-1.4h36.9
	c0.8,0,1.4,0.6,1.4,1.4V51.5z"/>
<circle class="st0" cx="281.3" cy="68.6" r="2.8"/>
<circle class="st0" cx="326.8" cy="68.6" r="2.8"/>
<circle class="st0" cx="281.3" cy="159.6" r="2.8"/>
<circle class="st0" cx="326.8" cy="159.6" r="2.8"/>
<path class="st0" d="M467.9,214.9c-0.8,0-1.4-0.6-1.4-1.4v-36.9c0-0.8,0.6-1.4,1.4-1.4h36.9c0.8,0,1.4,0.6,1.4,1.4v36.9
	c0,0.8-0.6,1.4-1.4,1.4H467.9z"/>
<path class="st0" d="M283.4,213.5c0,0.8-0.6,1.4-1.4,1.4h-36.9c-0.8,0-1.4-0.6-1.4-1.4v-36.9c0-0.8,0.6-1.4,1.4-1.4H282
	c0.8,0,1.4,0.6,1.4,1.4V213.5z"/>
<path class="st0" d="M141.7,213.5c0,0.8-0.6,1.4-1.4,1.4h-36.9c-0.8,0-1.4-0.6-1.4-1.4v-36.9c0-0.8,0.6-1.4,1.4-1.4h36.9
	c0.8,0,1.4,0.6,1.4,1.4V213.5z"/>
<path class="st0" d="M438.7,213.5c0,0.8-0.6,1.4-1.4,1.4h-36.9c-0.8,0-1.4-0.6-1.4-1.4v-36.9c0-0.8,0.6-1.4,1.4-1.4h36.9
	c0.8,0,1.4,0.6,1.4,1.4V213.5z"/>
<path class="st0" d="M364.4,213.5c0,0.8-0.6,1.4-1.4,1.4h-36.9c-0.8,0-1.4-0.6-1.4-1.4v-36.9c0-0.8,0.6-1.4,1.4-1.4H363
	c0.8,0,1.4,0.6,1.4,1.4V213.5z"/>
<path class="st0" d="M209.2,213.5c0,0.8-0.6,1.4-1.4,1.4h-36.9c-0.8,0-1.4-0.6-1.4-1.4v-36.9c0-0.8,0.6-1.4,1.4-1.4h36.9
	c0.8,0,1.4,0.6,1.4,1.4V213.5z"/>
</svg>
