%TF.GenerationSoftware,KiCad,Pcbnew,(6.0.5)*%
%TF.CreationDate,2022-06-12T21:41:47-04:00*%
%TF.ProjectId,vault35_ortho-rounded,7661756c-7433-4355-9f6f-7274686f2d72,rev?*%
%TF.SameCoordinates,Original*%
%TF.FileFunction,Profile,NP*%
%FSLAX46Y46*%
G04 Gerber Fmt 4.6, Leading zero omitted, Abs format (unit mm)*
G04 Created by KiCad (PCBNEW (6.0.5)) date 2022-06-12 21:41:47*
%MOMM*%
%LPD*%
G01*
G04 APERTURE LIST*
%TA.AperFunction,Profile*%
%ADD10C,0.050000*%
%TD*%
G04 APERTURE END LIST*
D10*
X80891375Y-115213518D02*
X80891375Y-129863517D01*
X52316375Y-58713518D02*
X52316375Y-106322518D01*
X96457000Y-132463511D02*
G75*
G03*
X98198667Y-131607615I0J2200011D01*
G01*
X54916375Y-56113475D02*
G75*
G03*
X52316375Y-58713518I25J-2600025D01*
G01*
X262016375Y-106322518D02*
X262016375Y-58713518D01*
X76191374Y-56113475D02*
G75*
G03*
X73991375Y-58313518I26J-2200025D01*
G01*
X259675750Y-108522518D02*
X259816375Y-108522518D01*
X254925750Y-113413449D02*
G75*
G03*
X257125749Y-111213517I50J2199949D01*
G01*
X216134083Y-131607615D02*
G75*
G03*
X210117416Y-131607615I-3008333J-2321622D01*
G01*
X57207375Y-111072517D02*
X57207375Y-111213518D01*
X259675750Y-108522549D02*
G75*
G03*
X257125749Y-111072517I-50J-2549951D01*
G01*
X54516375Y-108522518D02*
X54657375Y-108522518D01*
X105957000Y-132463518D02*
X208375750Y-132463518D01*
X80891383Y-115213518D02*
G75*
G03*
X79091376Y-113413517I-1799983J18D01*
G01*
X104215333Y-131607615D02*
G75*
G03*
X98198667Y-131607615I-3008333J-2321623D01*
G01*
X104215328Y-131607619D02*
G75*
G03*
X105957000Y-132463518I1741672J1344119D01*
G01*
X57207382Y-111072517D02*
G75*
G03*
X54657375Y-108522518I-2549982J17D01*
G01*
X59407375Y-113413517D02*
X79091376Y-113413517D01*
X238141376Y-56113517D02*
X93411943Y-56113517D01*
X87581943Y-56113517D02*
X76191374Y-56113517D01*
X233441375Y-129863517D02*
X233441375Y-115213518D01*
X257125749Y-111213517D02*
X257125749Y-111072517D01*
X259816375Y-108522475D02*
G75*
G03*
X262016375Y-106322518I25J2199975D01*
G01*
X80891382Y-129863517D02*
G75*
G03*
X83491375Y-132463518I2600018J17D01*
G01*
X259416374Y-56113517D02*
X247641375Y-56113519D01*
X68891381Y-58313518D02*
G75*
G03*
X66691375Y-56113519I-2199981J18D01*
G01*
X240341424Y-58713518D02*
G75*
G03*
X245441376Y-58713517I2549976J18D01*
G01*
X93411943Y-56113517D02*
X87581943Y-56113517D01*
X208375750Y-132463550D02*
G75*
G03*
X210117416Y-131607615I-50J2200050D01*
G01*
X235241374Y-113413517D02*
X254925750Y-113413516D01*
X235241374Y-113413475D02*
G75*
G03*
X233441375Y-115213518I26J-1800025D01*
G01*
X217875750Y-132463518D02*
X230841375Y-132463518D01*
X66691375Y-56113519D02*
X54916375Y-56113517D01*
X68891374Y-58713517D02*
X68891374Y-58313518D01*
X247641375Y-56113476D02*
G75*
G03*
X245441376Y-58313518I25J-2200024D01*
G01*
X57207383Y-111213518D02*
G75*
G03*
X59407375Y-113413517I2200017J18D01*
G01*
X73991375Y-58313518D02*
X73991375Y-58713518D01*
X240341375Y-58713518D02*
X240341375Y-58313518D01*
X68891365Y-58713517D02*
G75*
G03*
X73991375Y-58713518I2550005J27D01*
G01*
X230841375Y-132463475D02*
G75*
G03*
X233441375Y-129863517I25J2599975D01*
G01*
X240341383Y-58313518D02*
G75*
G03*
X238141376Y-56113517I-2199983J18D01*
G01*
X262016383Y-58713518D02*
G75*
G03*
X259416374Y-56113517I-2599983J18D01*
G01*
X83491375Y-132463518D02*
X96457000Y-132463518D01*
X216134046Y-131607643D02*
G75*
G03*
X217875750Y-132463518I1741654J1344143D01*
G01*
X245441376Y-58313518D02*
X245441376Y-58713517D01*
X52316382Y-106322518D02*
G75*
G03*
X54516375Y-108522518I2200018J18D01*
G01*
M02*
