M48
; DRILL file {KiCad (6.0.5)} date Sun Jun 12 21:41:48 2022
; FORMAT={-:-/ absolute / inch / decimal}
; #@! TF.CreationDate,2022-06-12T21:41:48-04:00
; #@! TF.GenerationSoftware,Kicad,Pcbnew,(6.0.5)
; #@! TF.FileFunction,Plated,1,2,PTH
FMAT,2
INCH
; #@! TA.AperFunction,Plated,PTH,ViaDrill
T1C0.0157
; #@! TA.AperFunction,Plated,PTH,ComponentDrill
T2C0.0236
; #@! TA.AperFunction,Plated,PTH,ComponentDrill
T3C0.0320
; #@! TA.AperFunction,Plated,PTH,ComponentDrill
T4C0.0394
; #@! TA.AperFunction,Plated,PTH,ComponentDrill
T5C0.0579
%
G90
G05
T1
X3.1117Y-2.4362
X3.3332Y-3.6598
X3.3415Y-3.8218
X3.3691Y-2.6931
X3.4014Y-3.5394
X3.4197Y-3.951
X3.4375Y-2.75
X3.4608Y-2.6011
X3.4688Y-3.5625
X3.5009Y-4.0425
X3.5069Y-2.5625
X3.5082Y-4.1915
X3.5098Y-3.5312
X3.5161Y-3.4397
X3.625Y-2.5625
X3.6301Y-3.3299
X3.6404Y-3.5312
X3.6668Y-2.5994
X3.7001Y-3.9201
X3.75Y-3.0938
X3.75Y-3.862
X3.7588Y-2.6863
X3.7706Y-3.4892
X3.8069Y-3.44
X3.8094Y-3.5332
X3.8294Y-3.0367
X3.8438Y-2.75
X3.8652Y-2.44
X3.9051Y-3.9817
X3.95Y-3.2
X3.9574Y-3.5263
X3.9978Y-4.1915
X4.0312Y-4.75
X4.0967Y-3.6716
X4.1046Y-2.9317
X4.1156Y-3.5603
X4.1468Y-3.4747
X4.1956Y-4.0616
X4.1972Y-3.7987
X4.2198Y-3.9554
X4.275Y-3.9
X4.3125Y-3.125
X4.3379Y-4.695
X4.3674Y-3.928
X4.4553Y-3.8762
X4.6388Y-2.9149
X4.7812Y-4.75
X5.0625Y-3.3438
X5.0625Y-4.0938
X5.7188Y-4.75
X5.7812Y-3.2579
X5.9062Y-4.6875
X5.9972Y-4.377
X6.084Y-3.3555
X6.125Y-3.1562
X6.4526Y-3.0544
X6.5625Y-4.375
X7.2812Y-4.7188
X7.6875Y-4.4688
X8.9062Y-4.75
T3
X6.0375Y-3.0
X6.0375Y-3.7226
X6.1375Y-3.0
X6.1375Y-3.7226
X6.2375Y-3.0
X6.2375Y-3.7226
X6.3375Y-3.0
X6.3375Y-3.7226
T4
X4.3125Y-2.9187
X4.3125Y-3.0187
X4.9627Y-2.9191
X4.9627Y-3.0191
X5.0627Y-2.9191
X5.0627Y-3.0191
X5.1627Y-2.9191
X5.1627Y-3.0191
X6.0891Y-2.3179
X6.0891Y-2.8888
X6.0891Y-3.068
X6.0891Y-3.6389
X6.0891Y-3.818
X6.0891Y-4.3889
X6.1875Y-2.8888
X6.1875Y-3.6389
X6.1875Y-4.3889
X6.2859Y-2.3179
X6.2859Y-2.8888
X6.2859Y-3.068
X6.2859Y-3.6389
X6.2859Y-3.818
X6.2859Y-4.3889
T5
X2.2875Y-2.4937
X2.2875Y-3.2437
X2.2875Y-3.9937
X2.5375Y-2.3937
X2.5375Y-3.1437
X2.5375Y-3.8937
X3.0375Y-2.4937
X3.0375Y-3.2437
X3.0375Y-3.9937
X3.2875Y-2.3937
X3.2875Y-3.1437
X3.2875Y-3.8937
X3.4125Y-4.7437
X3.5063Y-4.7437
X3.6Y-4.7437
X3.6625Y-4.6437
X3.7563Y-4.6437
X3.7875Y-2.4937
X3.7875Y-3.2437
X3.7875Y-3.9937
X3.85Y-4.6437
X4.0375Y-2.3937
X4.0375Y-3.1437
X4.0375Y-3.8937
X4.1625Y-4.7437
X4.2562Y-4.7437
X4.4125Y-4.6437
X4.4437Y-4.7437
X4.5062Y-4.6437
X4.5375Y-2.4937
X4.5375Y-3.2437
X4.5375Y-3.9937
X4.5375Y-4.7437
X4.6937Y-4.6437
X4.7875Y-2.3937
X4.7875Y-3.1437
X4.7875Y-3.8937
X4.7875Y-4.6437
X4.9125Y-4.7437
X5.0062Y-4.7437
X5.1625Y-4.6437
X5.2562Y-4.6437
X5.2875Y-2.4937
X5.2875Y-3.2437
X5.2875Y-3.9937
X5.2875Y-4.7437
X5.2875Y-4.7437
X5.3812Y-4.7437
X5.475Y-4.7437
X5.5375Y-2.3937
X5.5375Y-3.1437
X5.5375Y-3.8937
X5.5375Y-4.6437
X5.5375Y-4.6437
X5.6312Y-4.6437
X5.725Y-4.6437
X6.0375Y-2.4937
X6.0375Y-3.2437
X6.0375Y-3.9937
X6.0375Y-4.7437
X6.0375Y-4.7437
X6.2875Y-2.3937
X6.2875Y-3.1437
X6.2875Y-3.8937
X6.2875Y-4.6437
X6.2875Y-4.6437
X6.6Y-4.7437
X6.6937Y-4.7437
X6.7875Y-2.4937
X6.7875Y-3.2437
X6.7875Y-3.9937
X6.7875Y-4.7437
X6.7875Y-4.7437
X6.85Y-4.6437
X6.8812Y-4.7437
X6.9437Y-4.6437
X7.0375Y-2.3937
X7.0375Y-3.1437
X7.0375Y-3.8937
X7.0375Y-4.6437
X7.0375Y-4.6437
X7.1312Y-4.6437
X7.1625Y-4.7437
X7.4125Y-4.6437
X7.5375Y-2.4937
X7.5375Y-3.2437
X7.5375Y-3.9937
X7.5375Y-4.7437
X7.6312Y-4.7437
X7.7875Y-2.3937
X7.7875Y-3.1437
X7.7875Y-3.8937
X7.7875Y-4.6437
X7.8187Y-4.7437
X7.8812Y-4.6437
X7.9125Y-4.7437
X8.0687Y-4.6437
X8.1625Y-4.6437
X8.2875Y-2.4937
X8.2875Y-3.2437
X8.2875Y-3.9937
X8.475Y-4.7437
X8.5375Y-2.3937
X8.5375Y-3.1437
X8.5375Y-3.8937
X8.5687Y-4.7437
X8.6625Y-4.7437
X8.725Y-4.6437
X8.8187Y-4.6437
X8.9125Y-4.6437
X9.0375Y-2.4937
X9.0375Y-3.2437
X9.0375Y-3.9937
X9.2875Y-2.3937
X9.2875Y-3.1437
X9.2875Y-3.8937
X9.7875Y-2.4937
X9.7875Y-3.2437
X9.7875Y-3.9937
X10.0375Y-2.3937
X10.0375Y-3.1437
X10.0375Y-3.8937
T2
G00X3.3924Y-2.2381
M15
G01X3.3924Y-2.2618
M16
G05
G00X3.3924Y-2.3929
M15
G01X3.3924Y-2.4362
M16
G05
G00X3.7326Y-2.2381
M15
G01X3.7326Y-2.2618
M16
G05
G00X3.7326Y-2.3929
M15
G01X3.7326Y-2.4362
M16
G05
T0
M30
