M48
; DRILL file {KiCad (6.0.5)} date Sun Jun 12 21:41:48 2022
; FORMAT={-:-/ absolute / inch / decimal}
; #@! TF.CreationDate,2022-06-12T21:41:48-04:00
; #@! TF.GenerationSoftware,Kicad,Pcbnew,(6.0.5)
; #@! TF.FileFunction,NonPlated,1,2,NPTH
FMAT,2
INCH
; #@! TA.AperFunction,NonPlated,NPTH,ComponentDrill
T1C0.0256
; #@! TA.AperFunction,NonPlated,NPTH,ComponentDrill
T2C0.0591
; #@! TA.AperFunction,NonPlated,NPTH,ComponentDrill
T3C0.0689
; #@! TA.AperFunction,NonPlated,NPTH,ComponentDrill
T4C0.1200
; #@! TA.AperFunction,NonPlated,NPTH,ComponentDrill
T5C0.1570
%
G90
G05
T1
X3.4487Y-2.3937
X3.6763Y-2.3937
T3
X2.2375Y-2.5938
X2.2375Y-3.3438
X2.2375Y-4.0938
X2.6375Y-2.5938
X2.6375Y-3.3438
X2.6375Y-4.0938
X2.9875Y-2.5938
X2.9875Y-3.3438
X2.9875Y-4.0938
X3.3625Y-4.8438
X3.3875Y-2.5938
X3.3875Y-3.3438
X3.3875Y-4.0938
X3.4562Y-4.8438
X3.55Y-4.8438
X3.7375Y-2.5938
X3.7375Y-3.3438
X3.7375Y-4.0938
X3.7625Y-4.8438
X3.8562Y-4.8438
X3.95Y-4.8438
X4.1125Y-4.8438
X4.1375Y-2.5938
X4.1375Y-3.3438
X4.1375Y-4.0938
X4.2062Y-4.8438
X4.3937Y-4.8438
X4.4875Y-2.5938
X4.4875Y-3.3438
X4.4875Y-4.0938
X4.4875Y-4.8438
X4.5125Y-4.8438
X4.6063Y-4.8438
X4.7938Y-4.8438
X4.8625Y-4.8438
X4.8875Y-2.5938
X4.8875Y-3.3438
X4.8875Y-4.0938
X4.8875Y-4.8438
X4.9562Y-4.8438
X5.2375Y-2.5938
X5.2375Y-3.3438
X5.2375Y-4.0938
X5.2375Y-4.8438
X5.2375Y-4.8438
X5.2625Y-4.8438
X5.3312Y-4.8438
X5.3563Y-4.8438
X5.425Y-4.8438
X5.6375Y-2.5938
X5.6375Y-3.3438
X5.6375Y-4.0938
X5.6375Y-4.8438
X5.6375Y-4.8438
X5.7313Y-4.8438
X5.825Y-4.8438
X5.9875Y-2.5938
X5.9875Y-3.3438
X5.9875Y-4.0938
X5.9875Y-4.8438
X5.9875Y-4.8438
X6.3875Y-2.5938
X6.3875Y-3.3438
X6.3875Y-4.0938
X6.3875Y-4.8438
X6.3875Y-4.8438
X6.55Y-4.8438
X6.6437Y-4.8438
X6.7375Y-2.5938
X6.7375Y-3.3438
X6.7375Y-4.0938
X6.7375Y-4.8438
X6.7375Y-4.8438
X6.8312Y-4.8438
X6.95Y-4.8438
X7.0438Y-4.8438
X7.1125Y-4.8438
X7.1375Y-2.5938
X7.1375Y-3.3438
X7.1375Y-4.0938
X7.1375Y-4.8438
X7.1375Y-4.8438
X7.2313Y-4.8438
X7.4875Y-2.5938
X7.4875Y-3.3438
X7.4875Y-4.0938
X7.4875Y-4.8438
X7.5125Y-4.8438
X7.5812Y-4.8438
X7.7687Y-4.8438
X7.8625Y-4.8438
X7.8875Y-2.5938
X7.8875Y-3.3438
X7.8875Y-4.0938
X7.8875Y-4.8438
X7.9813Y-4.8438
X8.1687Y-4.8438
X8.2375Y-2.5938
X8.2375Y-3.3438
X8.2375Y-4.0938
X8.2625Y-4.8438
X8.425Y-4.8438
X8.5187Y-4.8438
X8.6125Y-4.8438
X8.6375Y-2.5938
X8.6375Y-3.3438
X8.6375Y-4.0938
X8.825Y-4.8438
X8.9187Y-4.8438
X8.9875Y-2.5938
X8.9875Y-3.3438
X8.9875Y-4.0938
X9.0125Y-4.8438
X9.3875Y-2.5938
X9.3875Y-3.3438
X9.3875Y-4.0938
X9.7375Y-2.5938
X9.7375Y-3.3438
X9.7375Y-4.0938
X10.1375Y-2.5938
X10.1375Y-3.3438
X10.1375Y-4.0938
T4
X4.3125Y-5.1187
X4.6875Y-5.1187
X4.9688Y-5.1187
X5.4375Y-5.1187
X5.625Y-5.1187
X5.8125Y-5.1187
X5.9062Y-5.1187
X5.9125Y-2.5938
X5.9125Y-4.0938
X6.4688Y-5.1187
X6.5625Y-5.1187
X6.5625Y-5.1187
X6.9375Y-5.1187
X7.4062Y-5.1187
X7.5Y-5.1187
X8.0625Y-5.1187
T5
X2.4375Y-2.5938
X2.4375Y-3.3438
X2.4375Y-4.0938
X3.1875Y-2.5938
X3.1875Y-3.3438
X3.1875Y-4.0938
X3.5625Y-4.8438
X3.6562Y-4.8438
X3.75Y-4.8438
X3.9375Y-2.5938
X3.9375Y-3.3438
X3.9375Y-4.0938
X4.3125Y-4.5187
X4.3125Y-4.8438
X4.4062Y-4.8438
X4.5938Y-4.8438
X4.6875Y-2.5938
X4.6875Y-3.3438
X4.6875Y-4.0938
X4.6875Y-4.5187
X4.6875Y-4.8438
X4.9688Y-4.5187
X5.0625Y-4.8438
X5.1562Y-4.8438
X5.4375Y-2.5938
X5.4375Y-3.3438
X5.4375Y-4.0938
X5.4375Y-4.5187
X5.4375Y-4.8438
X5.4375Y-4.8438
X5.5312Y-4.8438
X5.625Y-4.5187
X5.625Y-4.8438
X5.8125Y-4.5187
X5.9062Y-4.5187
X6.1875Y-2.5938
X6.1875Y-3.3438
X6.1875Y-4.0938
X6.1875Y-4.8438
X6.1875Y-4.8438
X6.4688Y-4.5187
X6.5125Y-2.5938
X6.5125Y-4.0938
X6.5625Y-4.5187
X6.5625Y-4.5187
X6.75Y-4.8438
X6.8438Y-4.8438
X6.9375Y-2.5938
X6.9375Y-3.3438
X6.9375Y-4.0938
X6.9375Y-4.5187
X6.9375Y-4.8438
X6.9375Y-4.8438
X7.0312Y-4.8438
X7.3125Y-4.8438
X7.4062Y-4.5187
X7.5Y-4.5187
X7.6875Y-2.5938
X7.6875Y-3.3438
X7.6875Y-4.0938
X7.6875Y-4.8438
X7.7812Y-4.8438
X7.9688Y-4.8438
X8.0625Y-4.5187
X8.0625Y-4.8438
X8.4375Y-2.5938
X8.4375Y-3.3438
X8.4375Y-4.0938
X8.625Y-4.8438
X8.7188Y-4.8438
X8.8125Y-4.8438
X9.1875Y-2.5938
X9.1875Y-3.3438
X9.1875Y-4.0938
X9.9375Y-2.5938
X9.9375Y-3.3438
X9.9375Y-4.0938
T2
G00X5.967Y-2.6176
M15
G01X5.967Y-2.5664
M16
G05
G00X5.967Y-3.3677
M15
G01X5.967Y-3.3166
M16
G05
G00X5.967Y-4.1177
M15
G01X5.967Y-4.0665
M16
G05
G00X6.408Y-2.6191
M15
G01X6.408Y-2.5679
M16
G05
G00X6.408Y-3.3692
M15
G01X6.408Y-3.318
M16
G05
G00X6.408Y-4.1192
M15
G01X6.408Y-4.068
M16
G05
T0
M30
