%TF.GenerationSoftware,KiCad,Pcbnew,(6.0.5)*%
%TF.CreationDate,2022-06-12T21:41:47-04:00*%
%TF.ProjectId,vault35_ortho-rounded,7661756c-7433-4355-9f6f-7274686f2d72,rev?*%
%TF.SameCoordinates,Original*%
%TF.FileFunction,Legend,Bot*%
%TF.FilePolarity,Positive*%
%FSLAX46Y46*%
G04 Gerber Fmt 4.6, Leading zero omitted, Abs format (unit mm)*
G04 Created by KiCad (PCBNEW (6.0.5)) date 2022-06-12 21:41:47*
%MOMM*%
%LPD*%
G01*
G04 APERTURE LIST*
%ADD10C,0.150000*%
%ADD11C,0.120000*%
G04 APERTURE END LIST*
D10*
X224170833Y-127246130D02*
X223551785Y-127246130D01*
X223885119Y-127627083D01*
X223742261Y-127627083D01*
X223647023Y-127674702D01*
X223599404Y-127722321D01*
X223551785Y-127817559D01*
X223551785Y-128055654D01*
X223599404Y-128150892D01*
X223647023Y-128198511D01*
X223742261Y-128246130D01*
X224027976Y-128246130D01*
X224123214Y-128198511D01*
X224170833Y-128150892D01*
X174116964Y-125753869D02*
X174069345Y-125706250D01*
X173974107Y-125658630D01*
X173736011Y-125658630D01*
X173640773Y-125706250D01*
X173593154Y-125753869D01*
X173545535Y-125849107D01*
X173545535Y-125944345D01*
X173593154Y-126087202D01*
X174164583Y-126658630D01*
X173545535Y-126658630D01*
X197738988Y-127674702D02*
X197834226Y-127627083D01*
X197881845Y-127579464D01*
X197929464Y-127484226D01*
X197929464Y-127436607D01*
X197881845Y-127341369D01*
X197834226Y-127293750D01*
X197738988Y-127246130D01*
X197548511Y-127246130D01*
X197453273Y-127293750D01*
X197405654Y-127341369D01*
X197358035Y-127436607D01*
X197358035Y-127484226D01*
X197405654Y-127579464D01*
X197453273Y-127627083D01*
X197548511Y-127674702D01*
X197738988Y-127674702D01*
X197834226Y-127722321D01*
X197881845Y-127769940D01*
X197929464Y-127865178D01*
X197929464Y-128055654D01*
X197881845Y-128150892D01*
X197834226Y-128198511D01*
X197738988Y-128246130D01*
X197548511Y-128246130D01*
X197453273Y-128198511D01*
X197405654Y-128150892D01*
X197358035Y-128055654D01*
X197358035Y-127865178D01*
X197405654Y-127769940D01*
X197453273Y-127722321D01*
X197548511Y-127674702D01*
X116776488Y-127674702D02*
X116871726Y-127627083D01*
X116919345Y-127579464D01*
X116966964Y-127484226D01*
X116966964Y-127436607D01*
X116919345Y-127341369D01*
X116871726Y-127293750D01*
X116776488Y-127246130D01*
X116586011Y-127246130D01*
X116490773Y-127293750D01*
X116443154Y-127341369D01*
X116395535Y-127436607D01*
X116395535Y-127484226D01*
X116443154Y-127579464D01*
X116490773Y-127627083D01*
X116586011Y-127674702D01*
X116776488Y-127674702D01*
X116871726Y-127722321D01*
X116919345Y-127769940D01*
X116966964Y-127865178D01*
X116966964Y-128055654D01*
X116919345Y-128150892D01*
X116871726Y-128198511D01*
X116776488Y-128246130D01*
X116586011Y-128246130D01*
X116490773Y-128198511D01*
X116443154Y-128150892D01*
X116395535Y-128055654D01*
X116395535Y-127865178D01*
X116443154Y-127769940D01*
X116490773Y-127722321D01*
X116586011Y-127674702D01*
X190309523Y-111704464D02*
X190309523Y-112371130D01*
X190547619Y-111323511D02*
X190785714Y-112037797D01*
X190166666Y-112037797D01*
X126539583Y-111371130D02*
X125920535Y-111371130D01*
X126253869Y-111752083D01*
X126111011Y-111752083D01*
X126015773Y-111799702D01*
X125968154Y-111847321D01*
X125920535Y-111942559D01*
X125920535Y-112180654D01*
X125968154Y-112275892D01*
X126015773Y-112323511D01*
X126111011Y-112371130D01*
X126396726Y-112371130D01*
X126491964Y-112323511D01*
X126539583Y-112275892D01*
X166449404Y-111371130D02*
X166925595Y-111371130D01*
X166973214Y-111847321D01*
X166925595Y-111799702D01*
X166830357Y-111752083D01*
X166592261Y-111752083D01*
X166497023Y-111799702D01*
X166449404Y-111847321D01*
X166401785Y-111942559D01*
X166401785Y-112180654D01*
X166449404Y-112275892D01*
X166497023Y-112323511D01*
X166592261Y-112371130D01*
X166830357Y-112371130D01*
X166925595Y-112323511D01*
X166973214Y-112275892D01*
X204597023Y-109783630D02*
X204787500Y-109783630D01*
X204882738Y-109831250D01*
X204930357Y-109878869D01*
X205025595Y-110021726D01*
X205073214Y-110212202D01*
X205073214Y-110593154D01*
X205025595Y-110688392D01*
X204977976Y-110736011D01*
X204882738Y-110783630D01*
X204692261Y-110783630D01*
X204597023Y-110736011D01*
X204549404Y-110688392D01*
X204501785Y-110593154D01*
X204501785Y-110355059D01*
X204549404Y-110259821D01*
X204597023Y-110212202D01*
X204692261Y-110164583D01*
X204882738Y-110164583D01*
X204977976Y-110212202D01*
X205025595Y-110259821D01*
X205073214Y-110355059D01*
X219408333Y-127246130D02*
X218741666Y-127246130D01*
X219170238Y-128246130D01*
X221551488Y-127674702D02*
X221646726Y-127627083D01*
X221694345Y-127579464D01*
X221741964Y-127484226D01*
X221741964Y-127436607D01*
X221694345Y-127341369D01*
X221646726Y-127293750D01*
X221551488Y-127246130D01*
X221361011Y-127246130D01*
X221265773Y-127293750D01*
X221218154Y-127341369D01*
X221170535Y-127436607D01*
X221170535Y-127484226D01*
X221218154Y-127579464D01*
X221265773Y-127627083D01*
X221361011Y-127674702D01*
X221551488Y-127674702D01*
X221646726Y-127722321D01*
X221694345Y-127769940D01*
X221741964Y-127865178D01*
X221741964Y-128055654D01*
X221694345Y-128150892D01*
X221646726Y-128198511D01*
X221551488Y-128246130D01*
X221361011Y-128246130D01*
X221265773Y-128198511D01*
X221218154Y-128150892D01*
X221170535Y-128055654D01*
X221170535Y-127865178D01*
X221218154Y-127769940D01*
X221265773Y-127722321D01*
X221361011Y-127674702D01*
X109347023Y-109783630D02*
X109537500Y-109783630D01*
X109632738Y-109831250D01*
X109680357Y-109878869D01*
X109775595Y-110021726D01*
X109823214Y-110212202D01*
X109823214Y-110593154D01*
X109775595Y-110688392D01*
X109727976Y-110736011D01*
X109632738Y-110783630D01*
X109442261Y-110783630D01*
X109347023Y-110736011D01*
X109299404Y-110688392D01*
X109251785Y-110593154D01*
X109251785Y-110355059D01*
X109299404Y-110259821D01*
X109347023Y-110212202D01*
X109442261Y-110164583D01*
X109632738Y-110164583D01*
X109727976Y-110212202D01*
X109775595Y-110259821D01*
X109823214Y-110355059D01*
X118872023Y-111704464D02*
X118872023Y-112371130D01*
X119110119Y-111323511D02*
X119348214Y-112037797D01*
X118729166Y-112037797D01*
X119395833Y-125658630D02*
X118729166Y-125658630D01*
X119157738Y-126658630D01*
X164639583Y-111371130D02*
X164020535Y-111371130D01*
X164353869Y-111752083D01*
X164211011Y-111752083D01*
X164115773Y-111799702D01*
X164068154Y-111847321D01*
X164020535Y-111942559D01*
X164020535Y-112180654D01*
X164068154Y-112275892D01*
X164115773Y-112323511D01*
X164211011Y-112371130D01*
X164496726Y-112371130D01*
X164591964Y-112323511D01*
X164639583Y-112275892D01*
X176545833Y-127246130D02*
X175879166Y-127246130D01*
X176307738Y-128246130D01*
X90820833Y-127246130D02*
X90201785Y-127246130D01*
X90535119Y-127627083D01*
X90392261Y-127627083D01*
X90297023Y-127674702D01*
X90249404Y-127722321D01*
X90201785Y-127817559D01*
X90201785Y-128055654D01*
X90249404Y-128150892D01*
X90297023Y-128198511D01*
X90392261Y-128246130D01*
X90677976Y-128246130D01*
X90773214Y-128198511D01*
X90820833Y-128150892D01*
X218884523Y-125991964D02*
X218884523Y-126658630D01*
X219122619Y-125611011D02*
X219360714Y-126325297D01*
X218741666Y-126325297D01*
X224123214Y-125753869D02*
X224075595Y-125706250D01*
X223980357Y-125658630D01*
X223742261Y-125658630D01*
X223647023Y-125706250D01*
X223599404Y-125753869D01*
X223551785Y-125849107D01*
X223551785Y-125944345D01*
X223599404Y-126087202D01*
X224170833Y-126658630D01*
X223551785Y-126658630D01*
X223599404Y-128833630D02*
X224075595Y-128833630D01*
X224123214Y-129309821D01*
X224075595Y-129262202D01*
X223980357Y-129214583D01*
X223742261Y-129214583D01*
X223647023Y-129262202D01*
X223599404Y-129309821D01*
X223551785Y-129405059D01*
X223551785Y-129643154D01*
X223599404Y-129738392D01*
X223647023Y-129786011D01*
X223742261Y-129833630D01*
X223980357Y-129833630D01*
X224075595Y-129786011D01*
X224123214Y-129738392D01*
X204549404Y-111371130D02*
X205025595Y-111371130D01*
X205073214Y-111847321D01*
X205025595Y-111799702D01*
X204930357Y-111752083D01*
X204692261Y-111752083D01*
X204597023Y-111799702D01*
X204549404Y-111847321D01*
X204501785Y-111942559D01*
X204501785Y-112180654D01*
X204549404Y-112275892D01*
X204597023Y-112323511D01*
X204692261Y-112371130D01*
X204930357Y-112371130D01*
X205025595Y-112323511D01*
X205073214Y-112275892D01*
X90249404Y-128833630D02*
X90725595Y-128833630D01*
X90773214Y-129309821D01*
X90725595Y-129262202D01*
X90630357Y-129214583D01*
X90392261Y-129214583D01*
X90297023Y-129262202D01*
X90249404Y-129309821D01*
X90201785Y-129405059D01*
X90201785Y-129643154D01*
X90249404Y-129738392D01*
X90297023Y-129786011D01*
X90392261Y-129833630D01*
X90630357Y-129833630D01*
X90725595Y-129786011D01*
X90773214Y-129738392D01*
X90297023Y-130421130D02*
X90487500Y-130421130D01*
X90582738Y-130468750D01*
X90630357Y-130516369D01*
X90725595Y-130659226D01*
X90773214Y-130849702D01*
X90773214Y-131230654D01*
X90725595Y-131325892D01*
X90677976Y-131373511D01*
X90582738Y-131421130D01*
X90392261Y-131421130D01*
X90297023Y-131373511D01*
X90249404Y-131325892D01*
X90201785Y-131230654D01*
X90201785Y-130992559D01*
X90249404Y-130897321D01*
X90297023Y-130849702D01*
X90392261Y-130802083D01*
X90582738Y-130802083D01*
X90677976Y-130849702D01*
X90725595Y-130897321D01*
X90773214Y-130992559D01*
X171545238Y-126087202D02*
X171640476Y-126039583D01*
X171688095Y-125991964D01*
X171735714Y-125896726D01*
X171735714Y-125849107D01*
X171688095Y-125753869D01*
X171640476Y-125706250D01*
X171545238Y-125658630D01*
X171354761Y-125658630D01*
X171259523Y-125706250D01*
X171211904Y-125753869D01*
X171164285Y-125849107D01*
X171164285Y-125896726D01*
X171211904Y-125991964D01*
X171259523Y-126039583D01*
X171354761Y-126087202D01*
X171545238Y-126087202D01*
X171640476Y-126134821D01*
X171688095Y-126182440D01*
X171735714Y-126277678D01*
X171735714Y-126468154D01*
X171688095Y-126563392D01*
X171640476Y-126611011D01*
X171545238Y-126658630D01*
X171354761Y-126658630D01*
X171259523Y-126611011D01*
X171211904Y-126563392D01*
X171164285Y-126468154D01*
X171164285Y-126277678D01*
X171211904Y-126182440D01*
X171259523Y-126134821D01*
X171354761Y-126087202D01*
X156876785Y-126658630D02*
X157448214Y-126658630D01*
X157162500Y-126658630D02*
X157162500Y-125658630D01*
X157257738Y-125801488D01*
X157352976Y-125896726D01*
X157448214Y-125944345D01*
X128349404Y-125658630D02*
X128825595Y-125658630D01*
X128873214Y-126134821D01*
X128825595Y-126087202D01*
X128730357Y-126039583D01*
X128492261Y-126039583D01*
X128397023Y-126087202D01*
X128349404Y-126134821D01*
X128301785Y-126230059D01*
X128301785Y-126468154D01*
X128349404Y-126563392D01*
X128397023Y-126611011D01*
X128492261Y-126658630D01*
X128730357Y-126658630D01*
X128825595Y-126611011D01*
X128873214Y-126563392D01*
X157471053Y-128837690D02*
X156804386Y-128837690D01*
X157232958Y-129837690D01*
X138445833Y-127246130D02*
X137779166Y-127246130D01*
X138207738Y-128246130D01*
X188452083Y-111371130D02*
X187833035Y-111371130D01*
X188166369Y-111752083D01*
X188023511Y-111752083D01*
X187928273Y-111799702D01*
X187880654Y-111847321D01*
X187833035Y-111942559D01*
X187833035Y-112180654D01*
X187880654Y-112275892D01*
X187928273Y-112323511D01*
X188023511Y-112371130D01*
X188309226Y-112371130D01*
X188404464Y-112323511D01*
X188452083Y-112275892D01*
X140779464Y-125753869D02*
X140731845Y-125706250D01*
X140636607Y-125658630D01*
X140398511Y-125658630D01*
X140303273Y-125706250D01*
X140255654Y-125753869D01*
X140208035Y-125849107D01*
X140208035Y-125944345D01*
X140255654Y-126087202D01*
X140827083Y-126658630D01*
X140208035Y-126658630D01*
X223647023Y-130421130D02*
X223837500Y-130421130D01*
X223932738Y-130468750D01*
X223980357Y-130516369D01*
X224075595Y-130659226D01*
X224123214Y-130849702D01*
X224123214Y-131230654D01*
X224075595Y-131325892D01*
X224027976Y-131373511D01*
X223932738Y-131421130D01*
X223742261Y-131421130D01*
X223647023Y-131373511D01*
X223599404Y-131325892D01*
X223551785Y-131230654D01*
X223551785Y-130992559D01*
X223599404Y-130897321D01*
X223647023Y-130849702D01*
X223742261Y-130802083D01*
X223932738Y-130802083D01*
X224027976Y-130849702D01*
X224075595Y-130897321D01*
X224123214Y-130992559D01*
X147399404Y-111371130D02*
X147875595Y-111371130D01*
X147923214Y-111847321D01*
X147875595Y-111799702D01*
X147780357Y-111752083D01*
X147542261Y-111752083D01*
X147447023Y-111799702D01*
X147399404Y-111847321D01*
X147351785Y-111942559D01*
X147351785Y-112180654D01*
X147399404Y-112275892D01*
X147447023Y-112323511D01*
X147542261Y-112371130D01*
X147780357Y-112371130D01*
X147875595Y-112323511D01*
X147923214Y-112275892D01*
X92583035Y-126658630D02*
X93154464Y-126658630D01*
X92868750Y-126658630D02*
X92868750Y-125658630D01*
X92963988Y-125801488D01*
X93059226Y-125896726D01*
X93154464Y-125944345D01*
X221170535Y-126658630D02*
X221741964Y-126658630D01*
X221456250Y-126658630D02*
X221456250Y-125658630D01*
X221551488Y-125801488D01*
X221646726Y-125896726D01*
X221741964Y-125944345D01*
X150352083Y-111371130D02*
X149733035Y-111371130D01*
X150066369Y-111752083D01*
X149923511Y-111752083D01*
X149828273Y-111799702D01*
X149780654Y-111847321D01*
X149733035Y-111942559D01*
X149733035Y-112180654D01*
X149780654Y-112275892D01*
X149828273Y-112323511D01*
X149923511Y-112371130D01*
X150209226Y-112371130D01*
X150304464Y-112323511D01*
X150352083Y-112275892D01*
X130778273Y-125991964D02*
X130778273Y-126658630D01*
X131016369Y-125611011D02*
X131254464Y-126325297D01*
X130635416Y-126325297D01*
X137826785Y-112371130D02*
X138398214Y-112371130D01*
X138112500Y-112371130D02*
X138112500Y-111371130D01*
X138207738Y-111513988D01*
X138302976Y-111609226D01*
X138398214Y-111656845D01*
X95583333Y-127246130D02*
X94916666Y-127246130D01*
X95345238Y-128246130D01*
X92963988Y-127674702D02*
X93059226Y-127627083D01*
X93106845Y-127579464D01*
X93154464Y-127484226D01*
X93154464Y-127436607D01*
X93106845Y-127341369D01*
X93059226Y-127293750D01*
X92963988Y-127246130D01*
X92773511Y-127246130D01*
X92678273Y-127293750D01*
X92630654Y-127341369D01*
X92583035Y-127436607D01*
X92583035Y-127484226D01*
X92630654Y-127579464D01*
X92678273Y-127627083D01*
X92773511Y-127674702D01*
X92963988Y-127674702D01*
X93059226Y-127722321D01*
X93106845Y-127769940D01*
X93154464Y-127865178D01*
X93154464Y-128055654D01*
X93106845Y-128150892D01*
X93059226Y-128198511D01*
X92963988Y-128246130D01*
X92773511Y-128246130D01*
X92678273Y-128198511D01*
X92630654Y-128150892D01*
X92583035Y-128055654D01*
X92583035Y-127865178D01*
X92630654Y-127769940D01*
X92678273Y-127722321D01*
X92773511Y-127674702D01*
X138427549Y-125658630D02*
X137808501Y-125658630D01*
X138141835Y-126039583D01*
X137998977Y-126039583D01*
X137903739Y-126087202D01*
X137856120Y-126134821D01*
X137808501Y-126230059D01*
X137808501Y-126468154D01*
X137856120Y-126563392D01*
X137903739Y-126611011D01*
X137998977Y-126658630D01*
X138284692Y-126658630D01*
X138379930Y-126611011D01*
X138427549Y-126563392D01*
X156972023Y-127246130D02*
X157162500Y-127246130D01*
X157257738Y-127293750D01*
X157305357Y-127341369D01*
X157400595Y-127484226D01*
X157448214Y-127674702D01*
X157448214Y-128055654D01*
X157400595Y-128150892D01*
X157352976Y-128198511D01*
X157257738Y-128246130D01*
X157067261Y-128246130D01*
X156972023Y-128198511D01*
X156924404Y-128150892D01*
X156876785Y-128055654D01*
X156876785Y-127817559D01*
X156924404Y-127722321D01*
X156972023Y-127674702D01*
X157067261Y-127627083D01*
X157257738Y-127627083D01*
X157352976Y-127674702D01*
X157400595Y-127722321D01*
X157448214Y-127817559D01*
X166497023Y-110116964D02*
X166497023Y-110783630D01*
X166735119Y-109736011D02*
X166973214Y-110450297D01*
X166354166Y-110450297D01*
X197358035Y-126658630D02*
X197929464Y-126658630D01*
X197643750Y-126658630D02*
X197643750Y-125658630D01*
X197738988Y-125801488D01*
X197834226Y-125896726D01*
X197929464Y-125944345D01*
X109870833Y-125658630D02*
X109251785Y-125658630D01*
X109585119Y-126039583D01*
X109442261Y-126039583D01*
X109347023Y-126087202D01*
X109299404Y-126134821D01*
X109251785Y-126230059D01*
X109251785Y-126468154D01*
X109299404Y-126563392D01*
X109347023Y-126611011D01*
X109442261Y-126658630D01*
X109727976Y-126658630D01*
X109823214Y-126611011D01*
X109870833Y-126563392D01*
X205120833Y-125658630D02*
X204501785Y-125658630D01*
X204835119Y-126039583D01*
X204692261Y-126039583D01*
X204597023Y-126087202D01*
X204549404Y-126134821D01*
X204501785Y-126230059D01*
X204501785Y-126468154D01*
X204549404Y-126563392D01*
X204597023Y-126611011D01*
X204692261Y-126658630D01*
X204977976Y-126658630D01*
X205073214Y-126611011D01*
X205120833Y-126563392D01*
X95059523Y-125991964D02*
X95059523Y-126658630D01*
X95297619Y-125611011D02*
X95535714Y-126325297D01*
X94916666Y-126325297D01*
X176545833Y-125679136D02*
X175926785Y-125679136D01*
X176260119Y-126060089D01*
X176117261Y-126060089D01*
X176022023Y-126107708D01*
X175974404Y-126155327D01*
X175926785Y-126250565D01*
X175926785Y-126488660D01*
X175974404Y-126583898D01*
X176022023Y-126631517D01*
X176117261Y-126679136D01*
X176402976Y-126679136D01*
X176498214Y-126631517D01*
X176545833Y-126583898D01*
X202691964Y-125753869D02*
X202644345Y-125706250D01*
X202549107Y-125658630D01*
X202311011Y-125658630D01*
X202215773Y-125706250D01*
X202168154Y-125753869D01*
X202120535Y-125849107D01*
X202120535Y-125944345D01*
X202168154Y-126087202D01*
X202739583Y-126658630D01*
X202120535Y-126658630D01*
X175926785Y-112371130D02*
X176498214Y-112371130D01*
X176212500Y-112371130D02*
X176212500Y-111371130D01*
X176307738Y-111513988D01*
X176402976Y-111609226D01*
X176498214Y-111656845D01*
X116395535Y-126658630D02*
X116966964Y-126658630D01*
X116681250Y-126658630D02*
X116681250Y-125658630D01*
X116776488Y-125801488D01*
X116871726Y-125896726D01*
X116966964Y-125944345D01*
X195595833Y-125658630D02*
X194929166Y-125658630D01*
X195357738Y-126658630D01*
X142970238Y-126087202D02*
X143065476Y-126039583D01*
X143113095Y-125991964D01*
X143160714Y-125896726D01*
X143160714Y-125849107D01*
X143113095Y-125753869D01*
X143065476Y-125706250D01*
X142970238Y-125658630D01*
X142779761Y-125658630D01*
X142684523Y-125706250D01*
X142636904Y-125753869D01*
X142589285Y-125849107D01*
X142589285Y-125896726D01*
X142636904Y-125991964D01*
X142684523Y-126039583D01*
X142779761Y-126087202D01*
X142970238Y-126087202D01*
X143065476Y-126134821D01*
X143113095Y-126182440D01*
X143160714Y-126277678D01*
X143160714Y-126468154D01*
X143113095Y-126563392D01*
X143065476Y-126611011D01*
X142970238Y-126658630D01*
X142779761Y-126658630D01*
X142684523Y-126611011D01*
X142636904Y-126563392D01*
X142589285Y-126468154D01*
X142589285Y-126277678D01*
X142636904Y-126182440D01*
X142684523Y-126134821D01*
X142779761Y-126087202D01*
X109299404Y-111371130D02*
X109775595Y-111371130D01*
X109823214Y-111847321D01*
X109775595Y-111799702D01*
X109680357Y-111752083D01*
X109442261Y-111752083D01*
X109347023Y-111799702D01*
X109299404Y-111847321D01*
X109251785Y-111942559D01*
X109251785Y-112180654D01*
X109299404Y-112275892D01*
X109347023Y-112323511D01*
X109442261Y-112371130D01*
X109680357Y-112371130D01*
X109775595Y-112323511D01*
X109823214Y-112275892D01*
X90773214Y-125753869D02*
X90725595Y-125706250D01*
X90630357Y-125658630D01*
X90392261Y-125658630D01*
X90297023Y-125706250D01*
X90249404Y-125753869D01*
X90201785Y-125849107D01*
X90201785Y-125944345D01*
X90249404Y-126087202D01*
X90820833Y-126658630D01*
X90201785Y-126658630D01*
X112204464Y-125753869D02*
X112156845Y-125706250D01*
X112061607Y-125658630D01*
X111823511Y-125658630D01*
X111728273Y-125706250D01*
X111680654Y-125753869D01*
X111633035Y-125849107D01*
X111633035Y-125944345D01*
X111680654Y-126087202D01*
X112252083Y-126658630D01*
X111633035Y-126658630D01*
X185499404Y-125658630D02*
X185975595Y-125658630D01*
X186023214Y-126134821D01*
X185975595Y-126087202D01*
X185880357Y-126039583D01*
X185642261Y-126039583D01*
X185547023Y-126087202D01*
X185499404Y-126134821D01*
X185451785Y-126230059D01*
X185451785Y-126468154D01*
X185499404Y-126563392D01*
X185547023Y-126611011D01*
X185642261Y-126658630D01*
X185880357Y-126658630D01*
X185975595Y-126611011D01*
X186023214Y-126563392D01*
X142684523Y-111704464D02*
X142684523Y-112371130D01*
X142922619Y-111323511D02*
X143160714Y-112037797D01*
X142541666Y-112037797D01*
X178403273Y-125991964D02*
X178403273Y-126658630D01*
X178641369Y-125611011D02*
X178879464Y-126325297D01*
X178260416Y-126325297D01*
%TO.C,OL1*%
X165241255Y-94081672D02*
X165050779Y-94081672D01*
X164955541Y-94129292D01*
X164860303Y-94224530D01*
X164812684Y-94415006D01*
X164812684Y-94748339D01*
X164860303Y-94938815D01*
X164955541Y-95034053D01*
X165050779Y-95081672D01*
X165241255Y-95081672D01*
X165336494Y-95034053D01*
X165431732Y-94938815D01*
X165479351Y-94748339D01*
X165479351Y-94415006D01*
X165431732Y-94224530D01*
X165336494Y-94129292D01*
X165241255Y-94081672D01*
X163907922Y-95081672D02*
X164384113Y-95081672D01*
X164384113Y-94081672D01*
X163574589Y-94557863D02*
X163241255Y-94557863D01*
X163098398Y-95081672D02*
X163574589Y-95081672D01*
X163574589Y-94081672D01*
X163098398Y-94081672D01*
X162669827Y-95081672D02*
X162669827Y-94081672D01*
X162431732Y-94081672D01*
X162288875Y-94129292D01*
X162193636Y-94224530D01*
X162146017Y-94319768D01*
X162098398Y-94510244D01*
X162098398Y-94653101D01*
X162146017Y-94843577D01*
X162193636Y-94938815D01*
X162288875Y-95034053D01*
X162431732Y-95081672D01*
X162669827Y-95081672D01*
%TO.C,OL2*%
X165229811Y-75721010D02*
X165039335Y-75721010D01*
X164944097Y-75768630D01*
X164848859Y-75863868D01*
X164801240Y-76054344D01*
X164801240Y-76387677D01*
X164848859Y-76578153D01*
X164944097Y-76673391D01*
X165039335Y-76721010D01*
X165229811Y-76721010D01*
X165325050Y-76673391D01*
X165420288Y-76578153D01*
X165467907Y-76387677D01*
X165467907Y-76054344D01*
X165420288Y-75863868D01*
X165325050Y-75768630D01*
X165229811Y-75721010D01*
X163896478Y-76721010D02*
X164372669Y-76721010D01*
X164372669Y-75721010D01*
X163563145Y-76197201D02*
X163229811Y-76197201D01*
X163086954Y-76721010D02*
X163563145Y-76721010D01*
X163563145Y-75721010D01*
X163086954Y-75721010D01*
X162658383Y-76721010D02*
X162658383Y-75721010D01*
X162420288Y-75721010D01*
X162277431Y-75768630D01*
X162182192Y-75863868D01*
X162134573Y-75959106D01*
X162086954Y-76149582D01*
X162086954Y-76292439D01*
X162134573Y-76482915D01*
X162182192Y-76578153D01*
X162277431Y-76673391D01*
X162420288Y-76721010D01*
X162658383Y-76721010D01*
%TO.C,X1*%
X97675069Y-96539364D02*
X98853580Y-96303662D01*
X98146473Y-97010768D02*
X98382175Y-95832257D01*
X99493343Y-96943425D02*
X99089282Y-96539364D01*
X99291313Y-96741394D02*
X98584206Y-97448501D01*
X98617878Y-97280142D01*
X98617878Y-97145455D01*
X98584206Y-97044440D01*
%TO.C,U1*%
X91249404Y-70271130D02*
X91249404Y-71080654D01*
X91201785Y-71175892D01*
X91154166Y-71223511D01*
X91058928Y-71271130D01*
X90868452Y-71271130D01*
X90773214Y-71223511D01*
X90725595Y-71175892D01*
X90677976Y-71080654D01*
X90677976Y-70271130D01*
X89677976Y-71271130D02*
X90249404Y-71271130D01*
X89963690Y-71271130D02*
X89963690Y-70271130D01*
X90058928Y-70413988D01*
X90154166Y-70509226D01*
X90249404Y-70556845D01*
%TO.C,UR5*%
X103115230Y-57988522D02*
X103115230Y-58798046D01*
X103067611Y-58893284D01*
X103019992Y-58940903D01*
X102924754Y-58988522D01*
X102734278Y-58988522D01*
X102639040Y-58940903D01*
X102591421Y-58893284D01*
X102543802Y-58798046D01*
X102543802Y-57988522D01*
X101496183Y-58988522D02*
X101829516Y-58512332D01*
X102067611Y-58988522D02*
X102067611Y-57988522D01*
X101686659Y-57988522D01*
X101591421Y-58036142D01*
X101543802Y-58083761D01*
X101496183Y-58178999D01*
X101496183Y-58321856D01*
X101543802Y-58417094D01*
X101591421Y-58464713D01*
X101686659Y-58512332D01*
X102067611Y-58512332D01*
X100591421Y-57988522D02*
X101067611Y-57988522D01*
X101115230Y-58464713D01*
X101067611Y-58417094D01*
X100972373Y-58369475D01*
X100734278Y-58369475D01*
X100639040Y-58417094D01*
X100591421Y-58464713D01*
X100543802Y-58559951D01*
X100543802Y-58798046D01*
X100591421Y-58893284D01*
X100639040Y-58940903D01*
X100734278Y-58988522D01*
X100972373Y-58988522D01*
X101067611Y-58940903D01*
X101115230Y-58893284D01*
%TO.C,F1*%
X95485255Y-72402665D02*
X95485255Y-72069332D01*
X96009064Y-72069332D02*
X95009064Y-72069332D01*
X95009064Y-72545522D01*
X96009064Y-73450284D02*
X96009064Y-72878856D01*
X96009064Y-73164570D02*
X95009064Y-73164570D01*
X95151922Y-73069332D01*
X95247160Y-72974094D01*
X95294779Y-72878856D01*
%TO.C,UR3*%
X75536162Y-58338141D02*
X76345686Y-58338141D01*
X76440924Y-58385760D01*
X76488543Y-58433379D01*
X76536162Y-58528617D01*
X76536162Y-58719093D01*
X76488543Y-58814331D01*
X76440924Y-58861950D01*
X76345686Y-58909569D01*
X75536162Y-58909569D01*
X76536162Y-59957188D02*
X76059972Y-59623855D01*
X76536162Y-59385760D02*
X75536162Y-59385760D01*
X75536162Y-59766712D01*
X75583782Y-59861950D01*
X75631401Y-59909569D01*
X75726639Y-59957188D01*
X75869496Y-59957188D01*
X75964734Y-59909569D01*
X76012353Y-59861950D01*
X76059972Y-59766712D01*
X76059972Y-59385760D01*
X75536162Y-60290522D02*
X75536162Y-60909569D01*
X75917115Y-60576236D01*
X75917115Y-60719093D01*
X75964734Y-60814331D01*
X76012353Y-60861950D01*
X76107591Y-60909569D01*
X76345686Y-60909569D01*
X76440924Y-60861950D01*
X76488543Y-60814331D01*
X76536162Y-60719093D01*
X76536162Y-60433379D01*
X76488543Y-60338141D01*
X76440924Y-60290522D01*
%TO.C,U2*%
X92363976Y-98993039D02*
X92363976Y-99802563D01*
X92316357Y-99897801D01*
X92268738Y-99945420D01*
X92173500Y-99993039D01*
X91983024Y-99993039D01*
X91887786Y-99945420D01*
X91840167Y-99897801D01*
X91792548Y-99802563D01*
X91792548Y-98993039D01*
X91363976Y-99088278D02*
X91316357Y-99040659D01*
X91221119Y-98993039D01*
X90983024Y-98993039D01*
X90887786Y-99040659D01*
X90840167Y-99088278D01*
X90792548Y-99183516D01*
X90792548Y-99278754D01*
X90840167Y-99421611D01*
X91411595Y-99993039D01*
X90792548Y-99993039D01*
%TO.C,C2*%
X104074899Y-89068280D02*
X104074899Y-89000937D01*
X104007555Y-88866250D01*
X103940212Y-88798906D01*
X103805524Y-88731563D01*
X103670837Y-88731563D01*
X103569822Y-88765234D01*
X103401463Y-88866250D01*
X103300448Y-88967265D01*
X103199433Y-89135624D01*
X103165761Y-89236639D01*
X103165761Y-89371326D01*
X103233105Y-89506013D01*
X103300448Y-89573357D01*
X103435135Y-89640700D01*
X103502479Y-89640700D01*
X103771853Y-89910074D02*
X103771853Y-89977418D01*
X103805524Y-90078433D01*
X103973883Y-90246792D01*
X104074899Y-90280463D01*
X104142242Y-90280463D01*
X104243257Y-90246792D01*
X104310601Y-90179448D01*
X104377944Y-90044761D01*
X104377944Y-89236639D01*
X104815677Y-89674372D01*
%TO.C,C4*%
X94049155Y-78864101D02*
X94096774Y-78911720D01*
X94239631Y-78959339D01*
X94334869Y-78959339D01*
X94477727Y-78911720D01*
X94572965Y-78816482D01*
X94620584Y-78721244D01*
X94668203Y-78530768D01*
X94668203Y-78387911D01*
X94620584Y-78197435D01*
X94572965Y-78102197D01*
X94477727Y-78006959D01*
X94334869Y-77959339D01*
X94239631Y-77959339D01*
X94096774Y-78006959D01*
X94049155Y-78054578D01*
X93192012Y-78292673D02*
X93192012Y-78959339D01*
X93430108Y-77911720D02*
X93668203Y-78626006D01*
X93049155Y-78626006D01*
%TO.C,UR1*%
X91185256Y-73336855D02*
X91994780Y-73336855D01*
X92090018Y-73384474D01*
X92137637Y-73432093D01*
X92185256Y-73527331D01*
X92185256Y-73717807D01*
X92137637Y-73813045D01*
X92090018Y-73860664D01*
X91994780Y-73908283D01*
X91185256Y-73908283D01*
X92185256Y-74955902D02*
X91709066Y-74622569D01*
X92185256Y-74384474D02*
X91185256Y-74384474D01*
X91185256Y-74765426D01*
X91232876Y-74860664D01*
X91280495Y-74908283D01*
X91375733Y-74955902D01*
X91518590Y-74955902D01*
X91613828Y-74908283D01*
X91661447Y-74860664D01*
X91709066Y-74765426D01*
X91709066Y-74384474D01*
X92185256Y-75908283D02*
X92185256Y-75336855D01*
X92185256Y-75622569D02*
X91185256Y-75622569D01*
X91328114Y-75527331D01*
X91423352Y-75432093D01*
X91470971Y-75336855D01*
%TO.C,R2*%
X89101186Y-103418127D02*
X89434520Y-102941937D01*
X89672615Y-103418127D02*
X89672615Y-102418127D01*
X89291662Y-102418127D01*
X89196424Y-102465747D01*
X89148805Y-102513366D01*
X89101186Y-102608604D01*
X89101186Y-102751461D01*
X89148805Y-102846699D01*
X89196424Y-102894318D01*
X89291662Y-102941937D01*
X89672615Y-102941937D01*
X88720234Y-102513366D02*
X88672615Y-102465747D01*
X88577377Y-102418127D01*
X88339281Y-102418127D01*
X88244043Y-102465747D01*
X88196424Y-102513366D01*
X88148805Y-102608604D01*
X88148805Y-102703842D01*
X88196424Y-102846699D01*
X88767853Y-103418127D01*
X88148805Y-103418127D01*
%TO.C,SW1*%
X110870834Y-79411010D02*
X110727977Y-79458629D01*
X110489881Y-79458629D01*
X110394643Y-79411010D01*
X110347024Y-79363391D01*
X110299405Y-79268153D01*
X110299405Y-79172915D01*
X110347024Y-79077677D01*
X110394643Y-79030058D01*
X110489881Y-78982439D01*
X110680358Y-78934820D01*
X110775596Y-78887201D01*
X110823215Y-78839582D01*
X110870834Y-78744344D01*
X110870834Y-78649106D01*
X110823215Y-78553868D01*
X110775596Y-78506249D01*
X110680358Y-78458629D01*
X110442262Y-78458629D01*
X110299405Y-78506249D01*
X109966072Y-78458629D02*
X109727977Y-79458629D01*
X109537501Y-78744344D01*
X109347024Y-79458629D01*
X109108929Y-78458629D01*
X108204167Y-79458629D02*
X108775596Y-79458629D01*
X108489881Y-79458629D02*
X108489881Y-78458629D01*
X108585120Y-78601487D01*
X108680358Y-78696725D01*
X108775596Y-78744344D01*
%TO.C,C6*%
X97470786Y-89144518D02*
X97538129Y-89144518D01*
X97672816Y-89077174D01*
X97740160Y-89009831D01*
X97807503Y-88875143D01*
X97807503Y-88740456D01*
X97773832Y-88639441D01*
X97672816Y-88471082D01*
X97571801Y-88370067D01*
X97403442Y-88269052D01*
X97302427Y-88235380D01*
X97167740Y-88235380D01*
X97033053Y-88302724D01*
X96965709Y-88370067D01*
X96898366Y-88504754D01*
X96898366Y-88572098D01*
X96224931Y-89110846D02*
X96359618Y-88976159D01*
X96460633Y-88942487D01*
X96527977Y-88942487D01*
X96696335Y-88976159D01*
X96864694Y-89077174D01*
X97134068Y-89346548D01*
X97167740Y-89447563D01*
X97167740Y-89514907D01*
X97134068Y-89615922D01*
X96999381Y-89750609D01*
X96898366Y-89784281D01*
X96831022Y-89784281D01*
X96730007Y-89750609D01*
X96561648Y-89582250D01*
X96527977Y-89481235D01*
X96527977Y-89413892D01*
X96561648Y-89312876D01*
X96696335Y-89178189D01*
X96797351Y-89144518D01*
X96864694Y-89144518D01*
X96965709Y-89178189D01*
%TO.C,C1*%
X106333328Y-97366376D02*
X106400671Y-97366376D01*
X106535358Y-97299032D01*
X106602702Y-97231689D01*
X106670045Y-97097001D01*
X106670045Y-96962314D01*
X106636374Y-96861299D01*
X106535358Y-96692940D01*
X106434343Y-96591925D01*
X106265984Y-96490910D01*
X106164969Y-96457238D01*
X106030282Y-96457238D01*
X105895595Y-96524582D01*
X105828251Y-96591925D01*
X105760908Y-96726612D01*
X105760908Y-96793956D01*
X105727236Y-98107154D02*
X106131297Y-97703093D01*
X105929267Y-97905124D02*
X105222160Y-97198017D01*
X105390519Y-97231689D01*
X105525206Y-97231689D01*
X105626221Y-97198017D01*
%TO.C,C8*%
X85099237Y-91908333D02*
X85146856Y-91860714D01*
X85194475Y-91717857D01*
X85194475Y-91622619D01*
X85146856Y-91479761D01*
X85051618Y-91384523D01*
X84956380Y-91336904D01*
X84765904Y-91289285D01*
X84623047Y-91289285D01*
X84432571Y-91336904D01*
X84337333Y-91384523D01*
X84242095Y-91479761D01*
X84194475Y-91622619D01*
X84194475Y-91717857D01*
X84242095Y-91860714D01*
X84289714Y-91908333D01*
X84623047Y-92479761D02*
X84575428Y-92384523D01*
X84527809Y-92336904D01*
X84432571Y-92289285D01*
X84384952Y-92289285D01*
X84289714Y-92336904D01*
X84242095Y-92384523D01*
X84194475Y-92479761D01*
X84194475Y-92670238D01*
X84242095Y-92765476D01*
X84289714Y-92813095D01*
X84384952Y-92860714D01*
X84432571Y-92860714D01*
X84527809Y-92813095D01*
X84575428Y-92765476D01*
X84623047Y-92670238D01*
X84623047Y-92479761D01*
X84670666Y-92384523D01*
X84718285Y-92336904D01*
X84813523Y-92289285D01*
X85003999Y-92289285D01*
X85099237Y-92336904D01*
X85146856Y-92384523D01*
X85194475Y-92479761D01*
X85194475Y-92670238D01*
X85146856Y-92765476D01*
X85099237Y-92813095D01*
X85003999Y-92860714D01*
X84813523Y-92860714D01*
X84718285Y-92813095D01*
X84670666Y-92765476D01*
X84623047Y-92670238D01*
%TO.C,UR2*%
X88899752Y-73309484D02*
X89709276Y-73309484D01*
X89804514Y-73357103D01*
X89852133Y-73404722D01*
X89899752Y-73499960D01*
X89899752Y-73690436D01*
X89852133Y-73785674D01*
X89804514Y-73833293D01*
X89709276Y-73880912D01*
X88899752Y-73880912D01*
X89899752Y-74928531D02*
X89423562Y-74595198D01*
X89899752Y-74357103D02*
X88899752Y-74357103D01*
X88899752Y-74738055D01*
X88947372Y-74833293D01*
X88994991Y-74880912D01*
X89090229Y-74928531D01*
X89233086Y-74928531D01*
X89328324Y-74880912D01*
X89375943Y-74833293D01*
X89423562Y-74738055D01*
X89423562Y-74357103D01*
X88994991Y-75309484D02*
X88947372Y-75357103D01*
X88899752Y-75452341D01*
X88899752Y-75690436D01*
X88947372Y-75785674D01*
X88994991Y-75833293D01*
X89090229Y-75880912D01*
X89185467Y-75880912D01*
X89328324Y-75833293D01*
X89899752Y-75261865D01*
X89899752Y-75880912D01*
%TO.C,C3*%
X94428020Y-86637381D02*
X94475639Y-86589762D01*
X94523258Y-86446905D01*
X94523258Y-86351667D01*
X94475639Y-86208809D01*
X94380401Y-86113571D01*
X94285163Y-86065952D01*
X94094687Y-86018333D01*
X93951830Y-86018333D01*
X93761354Y-86065952D01*
X93666116Y-86113571D01*
X93570878Y-86208809D01*
X93523258Y-86351667D01*
X93523258Y-86446905D01*
X93570878Y-86589762D01*
X93618497Y-86637381D01*
X93523258Y-86970714D02*
X93523258Y-87589762D01*
X93904211Y-87256428D01*
X93904211Y-87399286D01*
X93951830Y-87494524D01*
X93999449Y-87542143D01*
X94094687Y-87589762D01*
X94332782Y-87589762D01*
X94428020Y-87542143D01*
X94475639Y-87494524D01*
X94523258Y-87399286D01*
X94523258Y-87113571D01*
X94475639Y-87018333D01*
X94428020Y-86970714D01*
%TO.C,C5*%
X99353437Y-98098127D02*
X99353437Y-98030784D01*
X99286093Y-97896097D01*
X99218750Y-97828753D01*
X99084062Y-97761410D01*
X98949375Y-97761410D01*
X98848360Y-97795081D01*
X98680001Y-97896097D01*
X98578986Y-97997112D01*
X98477971Y-98165471D01*
X98444299Y-98266486D01*
X98444299Y-98401173D01*
X98511643Y-98535860D01*
X98578986Y-98603204D01*
X98713673Y-98670547D01*
X98781017Y-98670547D01*
X99353437Y-99377654D02*
X99016719Y-99040936D01*
X99319765Y-98670547D01*
X99319765Y-98737891D01*
X99353437Y-98838906D01*
X99521795Y-99007265D01*
X99622811Y-99040936D01*
X99690154Y-99040936D01*
X99791169Y-99007265D01*
X99959528Y-98838906D01*
X99993200Y-98737891D01*
X99993200Y-98670547D01*
X99959528Y-98569532D01*
X99791169Y-98401173D01*
X99690154Y-98367501D01*
X99622811Y-98367501D01*
%TO.C,C7*%
X86544553Y-100900494D02*
X86592172Y-100948113D01*
X86735029Y-100995732D01*
X86830267Y-100995732D01*
X86973125Y-100948113D01*
X87068363Y-100852875D01*
X87115982Y-100757637D01*
X87163601Y-100567161D01*
X87163601Y-100424304D01*
X87115982Y-100233828D01*
X87068363Y-100138590D01*
X86973125Y-100043352D01*
X86830267Y-99995732D01*
X86735029Y-99995732D01*
X86592172Y-100043352D01*
X86544553Y-100090971D01*
X86211220Y-99995732D02*
X85544553Y-99995732D01*
X85973125Y-100995732D01*
%TO.C,C9*%
X97230118Y-57575306D02*
X97277737Y-57622925D01*
X97420594Y-57670544D01*
X97515832Y-57670544D01*
X97658690Y-57622925D01*
X97753928Y-57527687D01*
X97801547Y-57432449D01*
X97849166Y-57241973D01*
X97849166Y-57099116D01*
X97801547Y-56908640D01*
X97753928Y-56813402D01*
X97658690Y-56718164D01*
X97515832Y-56670544D01*
X97420594Y-56670544D01*
X97277737Y-56718164D01*
X97230118Y-56765783D01*
X96753928Y-57670544D02*
X96563452Y-57670544D01*
X96468213Y-57622925D01*
X96420594Y-57575306D01*
X96325356Y-57432449D01*
X96277737Y-57241973D01*
X96277737Y-56861021D01*
X96325356Y-56765783D01*
X96372975Y-56718164D01*
X96468213Y-56670544D01*
X96658690Y-56670544D01*
X96753928Y-56718164D01*
X96801547Y-56765783D01*
X96849166Y-56861021D01*
X96849166Y-57099116D01*
X96801547Y-57194354D01*
X96753928Y-57241973D01*
X96658690Y-57289592D01*
X96468213Y-57289592D01*
X96372975Y-57241973D01*
X96325356Y-57194354D01*
X96277737Y-57099116D01*
%TO.C,USB1*%
X92225595Y-64201318D02*
X92225595Y-65010842D01*
X92177976Y-65106080D01*
X92130357Y-65153699D01*
X92035119Y-65201318D01*
X91844642Y-65201318D01*
X91749404Y-65153699D01*
X91701785Y-65106080D01*
X91654166Y-65010842D01*
X91654166Y-64201318D01*
X91225595Y-65153699D02*
X91082738Y-65201318D01*
X90844642Y-65201318D01*
X90749404Y-65153699D01*
X90701785Y-65106080D01*
X90654166Y-65010842D01*
X90654166Y-64915604D01*
X90701785Y-64820366D01*
X90749404Y-64772747D01*
X90844642Y-64725128D01*
X91035119Y-64677509D01*
X91130357Y-64629890D01*
X91177976Y-64582271D01*
X91225595Y-64487033D01*
X91225595Y-64391795D01*
X91177976Y-64296557D01*
X91130357Y-64248938D01*
X91035119Y-64201318D01*
X90797023Y-64201318D01*
X90654166Y-64248938D01*
X89892261Y-64677509D02*
X89749404Y-64725128D01*
X89701785Y-64772747D01*
X89654166Y-64867985D01*
X89654166Y-65010842D01*
X89701785Y-65106080D01*
X89749404Y-65153699D01*
X89844642Y-65201318D01*
X90225595Y-65201318D01*
X90225595Y-64201318D01*
X89892261Y-64201318D01*
X89797023Y-64248938D01*
X89749404Y-64296557D01*
X89701785Y-64391795D01*
X89701785Y-64487033D01*
X89749404Y-64582271D01*
X89797023Y-64629890D01*
X89892261Y-64677509D01*
X90225595Y-64677509D01*
X88701785Y-65201318D02*
X89273214Y-65201318D01*
X88987500Y-65201318D02*
X88987500Y-64201318D01*
X89082738Y-64344176D01*
X89177976Y-64439414D01*
X89273214Y-64487033D01*
%TO.C,R1*%
X103496884Y-71834653D02*
X103830218Y-71358463D01*
X104068313Y-71834653D02*
X104068313Y-70834653D01*
X103687360Y-70834653D01*
X103592122Y-70882273D01*
X103544503Y-70929892D01*
X103496884Y-71025130D01*
X103496884Y-71167987D01*
X103544503Y-71263225D01*
X103592122Y-71310844D01*
X103687360Y-71358463D01*
X104068313Y-71358463D01*
X102544503Y-71834653D02*
X103115932Y-71834653D01*
X102830218Y-71834653D02*
X102830218Y-70834653D01*
X102925456Y-70977511D01*
X103020694Y-71072749D01*
X103115932Y-71120368D01*
%TO.C,J1*%
X133465833Y-74887236D02*
X133465833Y-75601522D01*
X133513452Y-75744379D01*
X133608690Y-75839617D01*
X133751547Y-75887236D01*
X133846785Y-75887236D01*
X132465833Y-75887236D02*
X133037261Y-75887236D01*
X132751547Y-75887236D02*
X132751547Y-74887236D01*
X132846785Y-75030094D01*
X132942023Y-75125332D01*
X133037261Y-75172951D01*
X128180119Y-72756284D02*
X129180119Y-72756284D01*
X128465833Y-72422951D01*
X129180119Y-72089617D01*
X128180119Y-72089617D01*
X129180119Y-71422951D02*
X129180119Y-71232475D01*
X129132500Y-71137236D01*
X129037261Y-71041998D01*
X128846785Y-70994379D01*
X128513452Y-70994379D01*
X128322976Y-71041998D01*
X128227738Y-71137236D01*
X128180119Y-71232475D01*
X128180119Y-71422951D01*
X128227738Y-71518189D01*
X128322976Y-71613427D01*
X128513452Y-71661046D01*
X128846785Y-71661046D01*
X129037261Y-71613427D01*
X129132500Y-71518189D01*
X129180119Y-71422951D01*
X128227738Y-70613427D02*
X128180119Y-70470570D01*
X128180119Y-70232475D01*
X128227738Y-70137236D01*
X128275357Y-70089617D01*
X128370595Y-70041998D01*
X128465833Y-70041998D01*
X128561071Y-70089617D01*
X128608690Y-70137236D01*
X128656309Y-70232475D01*
X128703928Y-70422951D01*
X128751547Y-70518189D01*
X128799166Y-70565808D01*
X128894404Y-70613427D01*
X128989642Y-70613427D01*
X129084880Y-70565808D01*
X129132500Y-70518189D01*
X129180119Y-70422951D01*
X129180119Y-70184856D01*
X129132500Y-70041998D01*
X128180119Y-69613427D02*
X129180119Y-69613427D01*
X125680119Y-79863427D02*
X126156309Y-80196760D01*
X125680119Y-80434855D02*
X126680119Y-80434855D01*
X126680119Y-80053903D01*
X126632500Y-79958665D01*
X126584880Y-79911046D01*
X126489642Y-79863427D01*
X126346785Y-79863427D01*
X126251547Y-79911046D01*
X126203928Y-79958665D01*
X126156309Y-80053903D01*
X126156309Y-80434855D01*
X125727738Y-79482474D02*
X125680119Y-79339617D01*
X125680119Y-79101522D01*
X125727738Y-79006284D01*
X125775357Y-78958665D01*
X125870595Y-78911046D01*
X125965833Y-78911046D01*
X126061071Y-78958665D01*
X126108690Y-79006284D01*
X126156309Y-79101522D01*
X126203928Y-79291998D01*
X126251547Y-79387236D01*
X126299166Y-79434855D01*
X126394404Y-79482474D01*
X126489642Y-79482474D01*
X126584880Y-79434855D01*
X126632500Y-79387236D01*
X126680119Y-79291998D01*
X126680119Y-79053903D01*
X126632500Y-78911046D01*
X126680119Y-78625331D02*
X126680119Y-78053903D01*
X125680119Y-78339617D02*
X126680119Y-78339617D01*
X131680119Y-72280094D02*
X131680119Y-72756284D01*
X131203928Y-72803903D01*
X131251547Y-72756284D01*
X131299166Y-72661046D01*
X131299166Y-72422951D01*
X131251547Y-72327713D01*
X131203928Y-72280094D01*
X131108690Y-72232475D01*
X130870595Y-72232475D01*
X130775357Y-72280094D01*
X130727738Y-72327713D01*
X130680119Y-72422951D01*
X130680119Y-72661046D01*
X130727738Y-72756284D01*
X130775357Y-72803903D01*
X131680119Y-71946760D02*
X130680119Y-71613427D01*
X131680119Y-71280094D01*
X130680119Y-81339617D02*
X131680119Y-81339617D01*
X130965833Y-81006284D01*
X131680119Y-80672950D01*
X130680119Y-80672950D01*
X130680119Y-80196760D02*
X131680119Y-80196760D01*
X130727738Y-79768189D02*
X130680119Y-79625331D01*
X130680119Y-79387236D01*
X130727738Y-79291998D01*
X130775357Y-79244379D01*
X130870595Y-79196760D01*
X130965833Y-79196760D01*
X131061071Y-79244379D01*
X131108690Y-79291998D01*
X131156309Y-79387236D01*
X131203928Y-79577712D01*
X131251547Y-79672950D01*
X131299166Y-79720569D01*
X131394404Y-79768189D01*
X131489642Y-79768189D01*
X131584880Y-79720569D01*
X131632500Y-79672950D01*
X131680119Y-79577712D01*
X131680119Y-79339617D01*
X131632500Y-79196760D01*
X131680119Y-78577712D02*
X131680119Y-78387236D01*
X131632500Y-78291998D01*
X131537261Y-78196760D01*
X131346785Y-78149141D01*
X131013452Y-78149141D01*
X130822976Y-78196760D01*
X130727738Y-78291998D01*
X130680119Y-78387236D01*
X130680119Y-78577712D01*
X130727738Y-78672950D01*
X130822976Y-78768189D01*
X131013452Y-78815808D01*
X131346785Y-78815808D01*
X131537261Y-78768189D01*
X131632500Y-78672950D01*
X131680119Y-78577712D01*
X126382500Y-72232475D02*
X126430119Y-72327713D01*
X126430119Y-72470571D01*
X126382500Y-72613428D01*
X126287261Y-72708666D01*
X126192023Y-72756285D01*
X126001547Y-72803904D01*
X125858690Y-72803904D01*
X125668214Y-72756285D01*
X125572976Y-72708666D01*
X125477738Y-72613428D01*
X125430119Y-72470571D01*
X125430119Y-72375332D01*
X125477738Y-72232475D01*
X125525357Y-72184856D01*
X125858690Y-72184856D01*
X125858690Y-72375332D01*
X125430119Y-71756285D02*
X126430119Y-71756285D01*
X125430119Y-71184856D01*
X126430119Y-71184856D01*
X125430119Y-70708666D02*
X126430119Y-70708666D01*
X126430119Y-70470571D01*
X126382500Y-70327713D01*
X126287261Y-70232475D01*
X126192023Y-70184856D01*
X126001547Y-70137237D01*
X125858690Y-70137237D01*
X125668214Y-70184856D01*
X125572976Y-70232475D01*
X125477738Y-70327713D01*
X125430119Y-70470571D01*
X125430119Y-70708666D01*
X128227738Y-80720570D02*
X128180119Y-80577713D01*
X128180119Y-80339617D01*
X128227738Y-80244379D01*
X128275357Y-80196760D01*
X128370595Y-80149141D01*
X128465833Y-80149141D01*
X128561071Y-80196760D01*
X128608690Y-80244379D01*
X128656309Y-80339617D01*
X128703928Y-80530094D01*
X128751547Y-80625332D01*
X128799166Y-80672951D01*
X128894404Y-80720570D01*
X128989642Y-80720570D01*
X129084880Y-80672951D01*
X129132500Y-80625332D01*
X129180119Y-80530094D01*
X129180119Y-80291998D01*
X129132500Y-80149141D01*
X128275357Y-79149141D02*
X128227738Y-79196760D01*
X128180119Y-79339617D01*
X128180119Y-79434856D01*
X128227738Y-79577713D01*
X128322976Y-79672951D01*
X128418214Y-79720570D01*
X128608690Y-79768189D01*
X128751547Y-79768189D01*
X128942023Y-79720570D01*
X129037261Y-79672951D01*
X129132500Y-79577713D01*
X129180119Y-79434856D01*
X129180119Y-79339617D01*
X129132500Y-79196760D01*
X129084880Y-79149141D01*
X128180119Y-78720570D02*
X129180119Y-78720570D01*
X128180119Y-78149141D02*
X128751547Y-78577713D01*
X129180119Y-78149141D02*
X128608690Y-78720570D01*
%TO.C,UR4*%
X81430654Y-56602380D02*
X81430654Y-57411904D01*
X81383035Y-57507142D01*
X81335416Y-57554761D01*
X81240178Y-57602380D01*
X81049702Y-57602380D01*
X80954464Y-57554761D01*
X80906845Y-57507142D01*
X80859226Y-57411904D01*
X80859226Y-56602380D01*
X79811607Y-57602380D02*
X80144940Y-57126190D01*
X80383035Y-57602380D02*
X80383035Y-56602380D01*
X80002083Y-56602380D01*
X79906845Y-56650000D01*
X79859226Y-56697619D01*
X79811607Y-56792857D01*
X79811607Y-56935714D01*
X79859226Y-57030952D01*
X79906845Y-57078571D01*
X80002083Y-57126190D01*
X80383035Y-57126190D01*
X78954464Y-56935714D02*
X78954464Y-57602380D01*
X79192559Y-56554761D02*
X79430654Y-57269047D01*
X78811607Y-57269047D01*
D11*
%TO.C,D_SPACE17*%
X159298440Y-87975000D02*
X159298440Y-84075000D01*
X161298440Y-87975000D02*
X161298440Y-84075000D01*
X161298440Y-87975000D02*
X159298440Y-87975000D01*
%TO.C,D_SPACE34*%
X84343750Y-126075000D02*
X82343750Y-126075000D01*
X82343750Y-126075000D02*
X82343750Y-122175000D01*
X84343750Y-126075000D02*
X84343750Y-122175000D01*
%TO.C,D_SPACE5*%
X140212656Y-68925000D02*
X140212656Y-65025000D01*
X142212656Y-68925000D02*
X140212656Y-68925000D01*
X142212656Y-68925000D02*
X142212656Y-65025000D01*
%TO.C,D_SPACE1*%
X66014844Y-68925000D02*
X66014844Y-65025000D01*
X64014844Y-68925000D02*
X64014844Y-65025000D01*
X66014844Y-68925000D02*
X64014844Y-68925000D01*
%TO.C,D_SPACE32*%
X235467192Y-107025000D02*
X235467192Y-103125000D01*
X237467192Y-107025000D02*
X237467192Y-103125000D01*
X237467192Y-107025000D02*
X235467192Y-107025000D01*
%TO.C,X1*%
X104365440Y-94565456D02*
X101183459Y-97747437D01*
X101183459Y-97747437D02*
X97365082Y-93929060D01*
%TO.C,D_SPACE36*%
X149018750Y-126075000D02*
X149018750Y-122175000D01*
X151018750Y-126075000D02*
X149018750Y-126075000D01*
X151018750Y-126075000D02*
X151018750Y-122175000D01*
%TO.C,U1*%
X90487500Y-66858750D02*
X91287500Y-66858750D01*
X90487500Y-66858750D02*
X89687500Y-66858750D01*
X90487500Y-69978750D02*
X91287500Y-69978750D01*
X90487500Y-69978750D02*
X88687500Y-69978750D01*
%TO.C,UR5*%
X100117580Y-59324186D02*
X100117580Y-59778314D01*
X98647580Y-59324186D02*
X98647580Y-59778314D01*
%TO.C,F1*%
X92825235Y-72071221D02*
X92825235Y-73275349D01*
X94645235Y-72071221D02*
X94645235Y-73275349D01*
%TO.C,D_SPACE38*%
X165306250Y-126075000D02*
X165306250Y-122175000D01*
X163306250Y-126075000D02*
X163306250Y-122175000D01*
X165306250Y-126075000D02*
X163306250Y-126075000D01*
%TO.C,D_SPACE25*%
X104113750Y-107025000D02*
X104113750Y-103125000D01*
X104113750Y-107025000D02*
X102113750Y-107025000D01*
X102113750Y-107025000D02*
X102113750Y-103125000D01*
%TO.C,UR3*%
X77052500Y-59304186D02*
X77052500Y-59758314D01*
X78522500Y-59304186D02*
X78522500Y-59758314D01*
%TO.C,D_SPACE18*%
X180340628Y-87975000D02*
X180340628Y-84075000D01*
X178340628Y-87975000D02*
X178340628Y-84075000D01*
X180340628Y-87975000D02*
X178340628Y-87975000D01*
%TO.C,U2*%
X95349571Y-90817216D02*
X94624571Y-90817216D01*
X88129571Y-98037216D02*
X88854571Y-98037216D01*
X88129571Y-91542216D02*
X88129571Y-90817216D01*
X88129571Y-97312216D02*
X88129571Y-98037216D01*
X95349571Y-91542216D02*
X95349571Y-90817216D01*
X95349571Y-97312216D02*
X95349571Y-98037216D01*
X95349571Y-98037216D02*
X94624571Y-98037216D01*
%TO.C,D_SPACE9*%
X218410468Y-68925000D02*
X218410468Y-65025000D01*
X218410468Y-68925000D02*
X216410468Y-68925000D01*
X216410468Y-68925000D02*
X216410468Y-65025000D01*
%TO.C,D_SPACE13*%
X85064297Y-87975000D02*
X85064297Y-84075000D01*
X85064297Y-87975000D02*
X83064297Y-87975000D01*
X83064297Y-87975000D02*
X83064297Y-84075000D01*
%TO.C,C2*%
X101976459Y-91224142D02*
X102345926Y-91593609D01*
X103015906Y-90184695D02*
X103385373Y-90554162D01*
%TO.C,C4*%
X94053983Y-77822500D02*
X94576487Y-77822500D01*
X94053983Y-76352500D02*
X94576487Y-76352500D01*
%TO.C,D_SPACE35*%
X101393750Y-126075000D02*
X101393750Y-122175000D01*
X103393750Y-126075000D02*
X103393750Y-122175000D01*
X103393750Y-126075000D02*
X101393750Y-126075000D01*
%TO.C,D_SPACE12*%
X66014844Y-87975000D02*
X64014844Y-87975000D01*
X64014844Y-87975000D02*
X64014844Y-84075000D01*
X66014844Y-87975000D02*
X66014844Y-84075000D01*
%TO.C,D_SPACE29*%
X178340628Y-107025000D02*
X178340628Y-103125000D01*
X180340628Y-107025000D02*
X180340628Y-103125000D01*
X180340628Y-107025000D02*
X178340628Y-107025000D01*
%TO.C,D_SPACE2*%
X85064297Y-68925000D02*
X85064297Y-65025000D01*
X83064297Y-68925000D02*
X83064297Y-65025000D01*
X85064297Y-68925000D02*
X83064297Y-68925000D01*
%TO.C,UR1*%
X90752500Y-77560436D02*
X90752500Y-78014564D01*
X92222500Y-77560436D02*
X92222500Y-78014564D01*
%TO.C,D_SPACE20*%
X218425004Y-87975000D02*
X216425004Y-87975000D01*
X216425004Y-87975000D02*
X216425004Y-84075000D01*
X218425004Y-87975000D02*
X218425004Y-84075000D01*
%TO.C,D_SPACE24*%
X83064297Y-107025000D02*
X83064297Y-103125000D01*
X85064297Y-107025000D02*
X85064297Y-103125000D01*
X85064297Y-107025000D02*
X83064297Y-107025000D01*
%TO.C,D_SPACE21*%
X235467192Y-87975000D02*
X235467192Y-84075000D01*
X237467192Y-87975000D02*
X237467192Y-84075000D01*
X237467192Y-87975000D02*
X235467192Y-87975000D01*
%TO.C,D_SPACE15*%
X121163203Y-87975000D02*
X121163203Y-84075000D01*
X123163203Y-87975000D02*
X123163203Y-84075000D01*
X123163203Y-87975000D02*
X121163203Y-87975000D01*
%TO.C,D_SPACE26*%
X123163203Y-107025000D02*
X121163203Y-107025000D01*
X123163203Y-107025000D02*
X123163203Y-103125000D01*
X121163203Y-107025000D02*
X121163203Y-103125000D01*
%TO.C,R2*%
X89641624Y-100684469D02*
X89641624Y-100230341D01*
X88171624Y-100684469D02*
X88171624Y-100230341D01*
%TO.C,D_SPACE16*%
X142256252Y-87975000D02*
X142256252Y-84075000D01*
X140256252Y-87975000D02*
X140256252Y-84075000D01*
X142256252Y-87975000D02*
X140256252Y-87975000D01*
%TO.C,D_SPACE14*%
X102113750Y-87975000D02*
X102113750Y-84075000D01*
X104113750Y-87975000D02*
X102113750Y-87975000D01*
X104113750Y-87975000D02*
X104113750Y-84075000D01*
%TO.C,D_SPACE30*%
X199382816Y-107025000D02*
X199382816Y-103125000D01*
X197382816Y-107025000D02*
X197382816Y-103125000D01*
X199382816Y-107025000D02*
X197382816Y-107025000D01*
%TO.C,SW1*%
X108087501Y-72686249D02*
X107597501Y-73176249D01*
X110987501Y-78126249D02*
X111477501Y-77636249D01*
X108087501Y-72686249D02*
X110987501Y-72686249D01*
X108087501Y-78126249D02*
X110987501Y-78126249D01*
X106817501Y-74366249D02*
X106817501Y-76446249D01*
X108087501Y-78126249D02*
X107597501Y-77636249D01*
X112257501Y-74366249D02*
X112257501Y-76446249D01*
X110987501Y-72686249D02*
X111477501Y-73176249D01*
%TO.C,C6*%
X97464269Y-89981660D02*
X97833736Y-89612193D01*
X98503716Y-91021107D02*
X98873183Y-90651640D01*
%TO.C,D_SPACE4*%
X121163203Y-68925000D02*
X121163203Y-65025000D01*
X123163203Y-68925000D02*
X121163203Y-68925000D01*
X123163203Y-68925000D02*
X123163203Y-65025000D01*
%TO.C,C1*%
X105109990Y-96748207D02*
X105479457Y-96378740D01*
X104070543Y-95708760D02*
X104440010Y-95339293D01*
%TO.C,D_SPACE11*%
X254509381Y-68925000D02*
X254509381Y-65025000D01*
X256509381Y-68925000D02*
X254509381Y-68925000D01*
X256509381Y-68925000D02*
X256509381Y-65025000D01*
%TO.C,C8*%
X87064595Y-91795442D02*
X87064595Y-92317946D01*
X85594595Y-91795442D02*
X85594595Y-92317946D01*
%TO.C,UR2*%
X88752500Y-77560436D02*
X88752500Y-78014564D01*
X90222500Y-77560436D02*
X90222500Y-78014564D01*
%TO.C,D_SPACE37*%
X161252688Y-126075000D02*
X161252688Y-122175000D01*
X159252688Y-126075000D02*
X159252688Y-122175000D01*
X161252688Y-126075000D02*
X159252688Y-126075000D01*
%TO.C,D_SPACE10*%
X235459921Y-68925000D02*
X235459921Y-65025000D01*
X237459921Y-68925000D02*
X235459921Y-68925000D01*
X237459921Y-68925000D02*
X237459921Y-65025000D01*
%TO.C,D_SPACE40*%
X229981250Y-126075000D02*
X229981250Y-122175000D01*
X231981250Y-126075000D02*
X229981250Y-126075000D01*
X231981250Y-126075000D02*
X231981250Y-122175000D01*
%TO.C,D_SPACE8*%
X199361015Y-68925000D02*
X199361015Y-65025000D01*
X197361015Y-68925000D02*
X197361015Y-65025000D01*
X199361015Y-68925000D02*
X197361015Y-68925000D01*
%TO.C,D_SPACE39*%
X212931250Y-126075000D02*
X212931250Y-122175000D01*
X212931250Y-126075000D02*
X210931250Y-126075000D01*
X210931250Y-126075000D02*
X210931250Y-122175000D01*
%TO.C,C3*%
X91544949Y-87068320D02*
X91544949Y-86545816D01*
X93014949Y-87068320D02*
X93014949Y-86545816D01*
%TO.C,D_SPACE3*%
X104113750Y-68925000D02*
X102113750Y-68925000D01*
X102113750Y-68925000D02*
X102113750Y-65025000D01*
X104113750Y-68925000D02*
X104113750Y-65025000D01*
%TO.C,C5*%
X98088589Y-98931372D02*
X98458056Y-99300839D01*
X97049142Y-99970819D02*
X97418609Y-100340286D01*
%TO.C,C7*%
X87084990Y-98271855D02*
X87084990Y-97749351D01*
X85614990Y-98271855D02*
X85614990Y-97749351D01*
%TO.C,D_SPACE27*%
X142256252Y-107025000D02*
X140256252Y-107025000D01*
X142256252Y-107025000D02*
X142256252Y-103125000D01*
X140256252Y-107025000D02*
X140256252Y-103125000D01*
%TO.C,D_SPACE28*%
X161298440Y-107025000D02*
X159298440Y-107025000D01*
X161298440Y-107025000D02*
X161298440Y-103125000D01*
X159298440Y-107025000D02*
X159298440Y-103125000D01*
%TO.C,D_SPACE23*%
X66014844Y-107025000D02*
X64014844Y-107025000D01*
X64014844Y-107025000D02*
X64014844Y-103125000D01*
X66014844Y-107025000D02*
X66014844Y-103125000D01*
%TO.C,D_SPACE31*%
X216425004Y-107025000D02*
X216425004Y-103125000D01*
X218425004Y-107025000D02*
X216425004Y-107025000D01*
X218425004Y-107025000D02*
X218425004Y-103125000D01*
%TO.C,D_SPACE7*%
X180311562Y-68925000D02*
X178311562Y-68925000D01*
X180311562Y-68925000D02*
X180311562Y-65025000D01*
X178311562Y-68925000D02*
X178311562Y-65025000D01*
%TO.C,C9*%
X96266330Y-59812502D02*
X96266330Y-59289998D01*
X97736330Y-59812502D02*
X97736330Y-59289998D01*
%TO.C,D_SPACE33*%
X254509381Y-107025000D02*
X254509381Y-103125000D01*
X256509381Y-107025000D02*
X256509381Y-103125000D01*
X256509381Y-107025000D02*
X254509381Y-107025000D01*
%TO.C,R1*%
X103557282Y-73767273D02*
X103103154Y-73767273D01*
X103557282Y-72297273D02*
X103103154Y-72297273D01*
%TO.C,D_SPACE19*%
X199382816Y-87975000D02*
X199382816Y-84075000D01*
X197382816Y-87975000D02*
X197382816Y-84075000D01*
X199382816Y-87975000D02*
X197382816Y-87975000D01*
%TO.C,D_SPACE22*%
X256509381Y-87975000D02*
X256509381Y-84075000D01*
X254509381Y-87975000D02*
X254509381Y-84075000D01*
X256509381Y-87975000D02*
X254509381Y-87975000D01*
%TO.C,UR4*%
X79433750Y-59304186D02*
X79433750Y-59758314D01*
X80903750Y-59304186D02*
X80903750Y-59758314D01*
%TO.C,D_SPACE6*%
X161262109Y-68925000D02*
X161262109Y-65025000D01*
X161262109Y-68925000D02*
X159262109Y-68925000D01*
X159262109Y-68925000D02*
X159262109Y-65025000D01*
%TD*%
M02*
